<?xml version="1.0" encoding="utf-8"?>
<svg version="1.1" id="Layer_1" xmlns="http://www.w3.org/2000/svg" xmlns:xlink="http://www.w3.org/1999/xlink" x="0px" y="0px"
	 viewBox="0 0 215.6 154.7" style="enable-background:new 0 0 215.6 154.7;" xml:space="preserve">
<style type="text/css">
	.st0{fill:#0091E2;}
</style>
<g>
	<path class="st0" d="M213.5,58.5c-0.6-0.5-6-4.6-17.6-4.6c-3,0-6.1,0.3-9.1,0.8c-2.2-15.3-14.9-22.7-15.4-23.1l-3.1-1.8l-2,2.9
		c-2.5,3.9-4.4,8.3-5.5,12.8c-2.1,8.7-0.8,16.9,3.6,23.9c-5.3,3-13.9,3.7-15.7,3.8H6.7c-3.7,0-6.7,3-6.7,6.7
		c-0.2,12.4,1.9,24.8,6.2,36.5c4.9,12.8,12.2,22.3,21.6,28.1c10.6,6.5,27.9,10.2,47.4,10.2c8.8,0,17.6-0.8,26.3-2.4
		c12.1-2.2,23.7-6.4,34.4-12.5c8.8-5.1,16.7-11.6,23.4-19.2c11.3-12.7,18-26.9,22.9-39.5h2c12.3,0,19.9-4.9,24.1-9.1
		c2.8-2.6,4.9-5.8,6.4-9.4l0.9-2.6L213.5,58.5z"/>
	<path class="st0" d="M19.9,69.1h19c0.9,0,1.7-0.7,1.7-1.7v-17c0-0.9-0.7-1.7-1.7-1.7h-19c-0.9,0-1.7,0.7-1.7,1.7v17
		C18.3,68.4,19,69.1,19.9,69.1z M46.1,69.1h19c0.9,0,1.7-0.7,1.7-1.7v-17c0-0.9-0.7-1.7-1.7-1.7h-19c-0.9,0-1.7,0.7-1.7,1.7v17
		C44.5,68.4,45.2,69.1,46.1,69.1 M72.8,69.1h19c0.9,0,1.7-0.7,1.7-1.7v-17c0-0.9-0.7-1.7-1.7-1.7h-19c-0.9,0-1.7,0.7-1.7,1.7v17
		C71.1,68.4,71.8,69.1,72.8,69.1z M99.1,69.1h19c0.9,0,1.7-0.7,1.7-1.7v-17c0-0.9-0.7-1.7-1.7-1.7h-19c-0.9,0-1.7,0.7-1.7,1.7v17
		C97.4,68.4,98.2,69.1,99.1,69.1z M46.1,44.8h19c0.9,0,1.7-0.8,1.7-1.7v-17c0-0.9-0.7-1.7-1.7-1.7h-19c-0.9,0-1.7,0.7-1.7,1.7v17
		C44.5,44,45.2,44.8,46.1,44.8 M72.8,44.8h19c0.9,0,1.7-0.8,1.7-1.7v-17c0-0.9-0.7-1.7-1.7-1.7h-19c-0.9,0-1.7,0.7-1.7,1.7v17
		C71.1,44,71.8,44.8,72.8,44.8 M99.1,44.8h19c0.9,0,1.7-0.8,1.7-1.7v-17c0-0.9-0.8-1.7-1.7-1.7h-19c-0.9,0-1.7,0.7-1.7,1.7v17
		C97.4,44,98.2,44.8,99.1,44.8 M99.1,20.4h19c0.9,0,1.7-0.7,1.7-1.7v-17c0-0.9-0.8-1.7-1.7-1.7h-19c-0.9,0-1.7,0.7-1.7,1.7v17
		C97.4,19.6,98.2,20.4,99.1,20.4 M125.6,69.1h19c0.9,0,1.7-0.7,1.7-1.7v-17c0-0.9-0.7-1.7-1.7-1.7h-19c-0.9,0-1.7,0.7-1.7,1.7v17
		C124,68.4,124.7,69.1,125.6,69.1"/>
</g>
</svg>
