<?xml version="1.0" encoding="UTF-8"?><svg id="Layer_1" xmlns="http://www.w3.org/2000/svg" viewBox="0 0 94.52 20.1"><defs><style>.cls-1{fill:none;}.cls-2{fill:#fff;}</style></defs><path class="cls-2" d="m84.74,18.78l3.4-4.74h.07l3.14,4.74h2.21l-4.36-6.24,4.27-5.87h-2.09l-3.19,4.51h-.07l-3.07-4.51h-2.21l4.29,6.01-4.48,6.1h2.09Zm-6.95-10.37c.48.3.86.71,1.13,1.24.27.53.4,1.16.4,1.88v.26h-6.69v-.16c0-.7.15-1.33.45-1.89.3-.56.71-.99,1.23-1.3.52-.31,1.12-.47,1.8-.47s1.2.15,1.69.45Zm1.27,9.88c.83-.52,1.44-1.18,1.83-1.99l-1.34-.96c-.31.67-.75,1.19-1.33,1.55-.57.36-1.24.54-2.01.54-1.13,0-2.01-.35-2.64-1.04-.63-.7-.95-1.57-.95-2.62v-.56h8.71v-.89c0-1.14-.21-2.16-.63-3.05-.42-.89-1.02-1.59-1.81-2.1-.78-.51-1.71-.76-2.79-.76s-2.05.26-2.86.79c-.81.52-1.45,1.26-1.9,2.21-.45.95-.68,2.06-.68,3.34s.23,2.4.68,3.34c.45.95,1.09,1.68,1.9,2.21.81.52,1.77.79,2.86.79s2.13-.26,2.96-.77Zm-10.23-1.15h-1.78V1.41h-1.88v15.42c0,.56.17,1.03.52,1.4.34.37.84.55,1.48.55h1.67v-1.64Zm-11.17-13c.52,0,.96.09,1.33.27.37.18.65.45.84.8.2.35.29.78.29,1.28v1.22c0,.5-.1.93-.29,1.28-.2.35-.48.62-.84.8-.37.18-.81.27-1.33.27h-4.55v-5.91h4.55Zm-4.55,7.65h4.55c.99,0,1.82-.19,2.5-.57.68-.38,1.2-.93,1.55-1.63.35-.7.53-1.53.53-2.49s-.18-1.8-.53-2.5c-.35-.7-.87-1.24-1.55-1.62-.68-.38-1.51-.57-2.5-.57h-6.52v16.38h1.97v-6.99Zm-24.65,6.99V4.98h.12l1.38,2.75,3.92,7.13,3.92-7.13,1.38-2.75h.12v13.8h1.92V2.4h-2.53l-3.1,5.8-1.62,3.03h-.12l-1.6-3.03-3.1-5.8h-2.63v16.38h1.92Zm-10.75-14.64c.52,0,.96.09,1.33.27.37.18.65.44.86.77.2.34.31.75.31,1.23v.8c0,.49-.1.9-.31,1.23-.2.34-.49.59-.86.77-.37.18-.81.27-1.33.27h-4.53v-5.35h4.53Zm.33,7.04c.56,0,1.05.1,1.45.29.41.2.72.48.94.86.22.38.33.84.33,1.38v.8c0,.55-.11,1.01-.33,1.38-.22.38-.53.66-.94.86-.41.2-.89.29-1.45.29h-4.86v-5.87h4.86Zm.61,7.6c.81,0,1.54-.21,2.17-.62.63-.41,1.13-.98,1.5-1.7.37-.72.55-1.53.55-2.42,0-.69-.11-1.27-.33-1.74-.22-.47-.5-.85-.83-1.15-.34-.3-.69-.52-1.06-.67-.37-.15-.7-.23-1-.25v-.14c.36-.06.75-.21,1.16-.45.41-.23.77-.59,1.06-1.08.29-.48.43-1.13.43-1.95,0-1.28-.39-2.31-1.17-3.07-.78-.77-1.85-1.15-3.19-1.15h-6.74v16.38h7.44Zm-11.03-1.64h-2.3V4.04h2.3v-1.64H1.05v1.64h2.3v13.09H1.05v1.64h6.57v-1.64Z"/><rect class="cls-1" width="94.52" height="20.1"/></svg>