<?xml version="1.0" encoding="UTF-8"?><svg id="Layer_1" xmlns="http://www.w3.org/2000/svg" viewBox="0 0 89.27 20.1"><defs><style>.cls-1{fill:none;}.cls-2{fill:#fff;}</style></defs><path class="cls-2" d="m82.58,17.81c-.53-.38-1.03-1.02-1.5-1.92-.1-.16-.2-.27-.3-.33-.11-.06-.22-.07-.33-.04-.12.04-.19.12-.21.25-.02.13,0,.31.04.55l.49,2.35c.03.15.08.26.15.33.06.06.14.1.23.1.11,0,.23-.06.34-.17.11-.11.22-.23.32-.34.1-.11.19-.17.27-.17.07,0,.2.06.38.18.18.12.43.24.74.35.32.12.72.18,1.22.18.72,0,1.36-.13,1.92-.4.56-.27.99-.64,1.3-1.11.31-.48.47-1.03.47-1.66,0-.58-.13-1.1-.38-1.56-.25-.45-.64-.85-1.18-1.18-.53-.33-1.22-.61-2.08-.83-.67-.19-1.2-.39-1.58-.6-.38-.21-.64-.44-.79-.7-.15-.26-.23-.54-.23-.85,0-.46.16-.84.49-1.15.32-.3.81-.45,1.45-.45.47,0,.91.09,1.31.26.4.17.79.46,1.15.85.37.39.72.92,1.07,1.59.09.14.19.23.3.28.11.05.23.05.35,0,.11-.05.18-.14.21-.27.02-.13,0-.3-.06-.51l-.61-2.5c-.05-.17-.11-.28-.18-.34-.07-.06-.16-.09-.26-.09-.11,0-.22.05-.35.14-.13.09-.25.18-.37.27-.12.09-.23.13-.32.13-.1,0-.24-.04-.43-.13-.19-.09-.44-.18-.76-.27-.31-.09-.71-.14-1.2-.14-1.23,0-2.19.29-2.86.86-.67.58-1,1.35-1,2.31,0,.59.12,1.12.36,1.57.24.45.64.86,1.21,1.21.57.35,1.35.68,2.34.97.59.18,1.06.37,1.39.57.33.2.57.42.7.65.13.24.2.5.2.8,0,.45-.15.81-.46,1.09-.31.28-.74.42-1.29.42-.59,0-1.16-.19-1.69-.57Zm-4.23-7.78c-.37-.65-.88-1.16-1.54-1.53-.66-.37-1.44-.56-2.32-.56-1.09,0-2.03.25-2.82.74-.79.5-1.4,1.18-1.83,2.04-.43.86-.64,1.85-.64,2.97s.21,2.04.64,2.86c.43.82,1.02,1.45,1.79,1.9.77.45,1.67.68,2.7.68.86,0,1.62-.17,2.29-.51.67-.34,1.2-.79,1.59-1.35.39-.56.62-1.18.66-1.86,0-.12-.01-.21-.05-.26-.04-.05-.1-.08-.18-.08-.05,0-.1.02-.15.05-.05.03-.11.09-.18.18-.18.62-.54,1.12-1.07,1.52-.54.39-1.19.59-1.95.59-1.09,0-1.97-.4-2.65-1.19-.68-.79-1.02-1.96-1.02-3.49,0-.85.11-1.57.32-2.16.21-.59.51-1.04.88-1.34.38-.3.82-.46,1.32-.46.61,0,1.11.28,1.5.84.39.56.59,1.37.59,2.42,0,.31-.15.46-.45.46h-4.84v.66h7c.31,0,.54-.08.7-.23.16-.15.24-.38.24-.68,0-.82-.18-1.56-.55-2.2Zm-10.46-.64c-.32-.44-.78-.8-1.39-1.06-.61-.26-1.33-.4-2.17-.4-1.07,0-2.01.25-2.81.76-.8.51-1.42,1.19-1.86,2.06-.44.86-.66,1.84-.66,2.92,0,1.14.21,2.11.64,2.92.43.81,1.02,1.44,1.77,1.87.75.43,1.61.65,2.58.65.82,0,1.55-.16,2.18-.47.63-.31,1.15-.74,1.53-1.27.39-.54.63-1.15.73-1.85,0-.11,0-.19-.05-.24-.04-.06-.1-.09-.17-.1-.05,0-.1.02-.15.05-.05.03-.12.09-.19.18-.22.58-.57,1.03-1.06,1.36-.49.33-1.1.49-1.83.49-.68,0-1.29-.17-1.83-.52-.54-.35-.96-.87-1.27-1.55-.31-.69-.47-1.52-.47-2.52,0-.8.11-1.49.33-2.07.22-.58.54-1.04.94-1.36.4-.32.87-.48,1.39-.48s.95.14,1.25.42c.3.28.45.66.45,1.13v.56c0,.43.11.77.33,1.01.22.24.54.37.95.37s.72-.12.96-.37c.24-.25.36-.59.36-1.03,0-.53-.16-1.01-.48-1.46Zm-17.56,1.18c.39-.37.75-.63,1.09-.8.34-.17.67-.26.99-.26.49,0,.85.16,1.1.48.25.32.42.81.51,1.48l.77,5.9c.02.2,0,.36-.07.46-.07.11-.18.18-.33.23l-.56.11c-.18.08-.27.2-.27.35,0,.24.13.35.39.35h4.29c.13,0,.23-.03.3-.09.07-.06.1-.15.1-.26,0-.09-.02-.16-.07-.23s-.12-.11-.21-.15l-.5-.11c-.15-.04-.25-.11-.3-.22-.06-.11-.1-.26-.12-.48l-.84-6.49c-.12-.94-.4-1.66-.82-2.16-.43-.5-1.04-.75-1.85-.75-.58,0-1.17.17-1.78.51-.61.34-1.32.89-2.12,1.65l-.46.44.35.41.41-.38Zm-.25-2.44c-.07-.09-.17-.13-.31-.13-.08,0-.17.01-.27.04-.1.02-.25.07-.43.13l-2.41.76c-.14.05-.24.11-.29.17-.06.07-.09.14-.09.23,0,.08.02.15.06.21.04.06.11.1.22.13h.72c.11.04.18.08.23.15.04.07.07.18.07.34v7.24c0,.19-.03.34-.09.43-.06.09-.15.16-.29.2l-.56.12c-.1.04-.17.09-.21.15-.04.06-.07.14-.07.23,0,.11.03.2.1.26.07.06.17.09.3.09h4.24c.25,0,.38-.12.38-.35,0-.15-.09-.27-.26-.35l-.55-.11c-.14-.05-.24-.12-.29-.22-.06-.1-.09-.25-.09-.46v-8.93c0-.13-.03-.24-.1-.32Zm-14.27,10.17c.53.55,1.22.83,2.06.83.62,0,1.26-.17,1.94-.5.67-.33,1.42-.89,2.23-1.67l.48-.44-.37-.44-.41.39c-.41.37-.81.65-1.2.82-.39.17-.76.26-1.13.26-.54,0-.97-.18-1.3-.53-.33-.35-.49-.89-.49-1.61v-6.94c0-.14-.03-.25-.1-.33-.07-.08-.17-.12-.3-.12-.09,0-.18.01-.29.04-.1.02-.25.07-.43.13l-2.41.76c-.14.05-.24.11-.3.17-.06.07-.09.14-.09.23,0,.08.02.15.07.21.04.06.12.1.21.13h.73c.11.04.18.08.23.15.05.07.07.18.07.33v5.71c0,1.06.27,1.86.8,2.41Zm6.31.34c.15.16.37.24.66.24h2.5c.13,0,.23-.03.3-.09.07-.06.1-.15.1-.26,0-.09-.02-.16-.07-.23-.04-.06-.12-.12-.23-.16l-.54-.11c-.13-.03-.23-.1-.29-.19-.07-.1-.1-.25-.1-.45v-8.92c0-.14-.03-.25-.1-.33-.07-.08-.17-.12-.3-.12-.09,0-.18.01-.29.04-.1.02-.24.07-.42.13l-2.41.76c-.15.05-.25.11-.3.17-.06.07-.09.14-.09.23,0,.08.02.15.07.21.04.06.12.1.21.13h.72c.11.04.19.08.24.15.04.07.07.18.07.33v6.6l.04.07v1.12c0,.28.07.51.23.67Zm-18.16-.25c.56.48,1.32.72,2.27.72.76,0,1.46-.15,2.11-.46.65-.31,1.16-.74,1.53-1.3l-.19-.5c-.26.34-.58.61-.96.8-.38.19-.78.29-1.21.29-.52,0-.94-.16-1.27-.49-.33-.32-.49-.8-.49-1.41s.18-1.14.55-1.5c.37-.36.88-.54,1.53-.54.36,0,.68.03.98.1.3.07.59.17.87.3l.17-.56c-.29-.13-.63-.24-1-.32-.37-.08-.79-.12-1.25-.12-1.45,0-2.56.28-3.33.83-.77.56-1.15,1.3-1.15,2.24,0,.79.28,1.42.85,1.91Zm6.05.3c.33.28.8.43,1.41.43.45,0,.82-.08,1.11-.24.29-.16.51-.35.66-.58.15-.23.22-.44.22-.65,0-.09-.02-.16-.05-.22-.04-.06-.09-.09-.15-.09l-.1.03-.08.08c-.04.13-.11.23-.19.29-.09.07-.2.1-.33.1-.17,0-.3-.06-.39-.19-.09-.13-.13-.31-.13-.54v-6.03c0-.99-.32-1.76-.96-2.31-.64-.55-1.59-.83-2.86-.83-.98,0-1.81.13-2.49.4-.67.27-1.18.62-1.52,1.04s-.51.87-.51,1.33c0,.36.1.64.29.84.19.2.48.3.84.3.43,0,.77-.12,1.02-.36.25-.24.38-.56.38-.97v-.74c0-.32.13-.6.4-.84.26-.24.66-.35,1.18-.35s.91.16,1.19.49c.28.33.42.8.42,1.42v6.83h.17s0,.21,0,.21c0,.47.16.85.49,1.13Zm-12.59-10.54c-.06-.08-.14-.12-.26-.12-.07,0-.15.01-.25.04-.1.02-.23.07-.4.12l-2.44.72c-.15.05-.25.11-.3.17-.06.07-.09.14-.09.23,0,.08.02.15.07.2.04.05.11.1.2.14h.74c.11.04.18.08.23.15.04.07.07.18.07.33v7.27c0,.19-.03.34-.09.43-.06.09-.15.15-.29.19l-.55.11c-.1.04-.17.09-.23.16-.05.07-.08.14-.08.23,0,.11.04.19.11.26.07.07.17.1.3.1h4.85c.14,0,.24-.03.32-.1.07-.06.11-.15.11-.26,0-.1-.03-.18-.09-.25-.06-.07-.15-.11-.28-.13l-1.01-.15c-.17-.03-.29-.1-.37-.21-.07-.11-.11-.25-.11-.44v-5.58l-.07-3.25c-.02-.18-.05-.31-.11-.38Zm.18,4.74c0-.74.08-1.36.25-1.86.17-.5.38-.87.64-1.13.26-.25.54-.38.83-.38.24,0,.41.06.52.19.11.13.16.31.16.57v.39c.02.38.12.67.31.88.19.2.47.3.85.3s.68-.14.93-.43c.24-.28.37-.71.37-1.28,0-.71-.17-1.25-.51-1.63-.34-.38-.82-.57-1.44-.57-.55,0-1.07.18-1.56.55-.49.37-.88.92-1.18,1.65-.3.74-.44,1.65-.44,2.76h.28Zm-12.95-1.8h4.18c.35,0,.64.04.87.13.23.09.44.24.63.46.19.22.4.52.63.9.07.11.15.19.24.23.09.04.18.04.28.01.11-.03.19-.1.23-.19s.03-.22,0-.38l-.86-3.64c-.06-.27-.19-.4-.41-.39-.1,0-.18.05-.24.12-.06.07-.1.17-.13.31-.04.59-.17,1-.4,1.23s-.59.34-1.1.34h-3.91v.86ZM1.52,1.81c-.15,0-.27.04-.35.11-.08.07-.12.17-.12.3,0,.22.12.37.37.45l.84.16c.19.06.32.13.41.23.09.09.13.23.13.4v13.77c0,.17-.04.3-.13.4-.09.09-.22.17-.41.23l-.84.16c-.24.08-.37.23-.37.45,0,.13.04.23.12.3.08.07.2.11.35.11h5.97c.16,0,.29-.04.37-.11.09-.07.13-.17.13-.3s-.03-.23-.1-.29c-.07-.06-.16-.11-.28-.15l-1.24-.17c-.19-.04-.34-.11-.44-.21-.1-.1-.15-.24-.15-.41V2.69h3.11c.45,0,.85.09,1.2.26.35.17.7.49,1.04.94.34.46.7,1.11,1.09,1.96.07.16.16.27.25.31.09.04.19.06.29.04.12-.02.22-.08.28-.17.06-.09.08-.21.04-.37l-.91-3.61c-.07-.24-.14-.4-.23-.5-.09-.1-.21-.15-.37-.15-.11,0-.22.03-.35.1-.13.07-.28.13-.44.2-.16.07-.35.1-.57.1H1.52Z"/><rect class="cls-1" width="89.27" height="20.1"/></svg>