<?xml version="1.0" encoding="UTF-8"?><svg id="Layer_1" xmlns="http://www.w3.org/2000/svg" viewBox="0 0 120.02 20.1"><defs><style>.cls-1{fill:none;}.cls-2{fill:#fff;}</style></defs><path class="cls-2" d="m116.68,8.97c.6.69.92,1.74.95,3.14h-6.81c.08-1.42.45-2.47,1.11-3.15.66-.68,1.47-1.03,2.44-1.03s1.72.34,2.32,1.03Zm2.26,4.42c0-.12.02-.26.02-.43,0-.16.01-.35.01-.55,0-1.19-.18-2.22-.55-3.09-.37-.86-.9-1.53-1.59-2-.69-.47-1.53-.71-2.5-.71s-1.89.26-2.64.79c-.76.53-1.35,1.26-1.77,2.2-.43.94-.64,2.01-.64,3.23s.21,2.33.63,3.26c.42.93,1.02,1.66,1.81,2.17.79.52,1.73.78,2.84.78.66,0,1.34-.12,2.04-.35s1.32-.57,1.88-.99l-.74-1.06c-.54.37-1.06.65-1.55.83-.49.18-1.05.27-1.68.27s-1.26-.15-1.81-.46c-.56-.3-1-.78-1.34-1.42-.34-.64-.52-1.47-.54-2.47h8.15Zm-16.9-5.11c.52.3.96.72,1.31,1.26v6.23c-.34.51-.78.98-1.31,1.4-.53.43-1.17.64-1.93.64-.71,0-1.3-.19-1.77-.58-.47-.39-.83-.95-1.07-1.7-.24-.74-.36-1.64-.36-2.69,0-1.66.29-2.91.88-3.75.59-.84,1.44-1.26,2.55-1.26.61,0,1.17.15,1.7.45Zm1.31-.16c-.41-.49-.89-.87-1.44-1.12-.55-.25-1.19-.38-1.92-.38-.99,0-1.83.27-2.53.82-.7.54-1.23,1.29-1.6,2.23-.37.94-.55,2.01-.55,3.2s.16,2.29.49,3.22c.33.93.83,1.66,1.51,2.18.68.52,1.55.78,2.61.78.62,0,1.23-.14,1.82-.43.59-.29,1.12-.77,1.6-1.46l.18,1.66h1.23V1.98l-1.42-.19v6.34Zm-14.08.96c.57.81.85,2.06.85,3.74s-.29,2.92-.86,3.74c-.57.82-1.42,1.23-2.55,1.23s-1.97-.41-2.55-1.23c-.57-.82-.86-2.06-.86-3.72s.29-2.95.87-3.77c.58-.81,1.44-1.22,2.56-1.22s1.95.41,2.52,1.22Zm-5.27-1.67c-.74.53-1.3,1.26-1.67,2.2-.37.94-.56,2.02-.56,3.24s.18,2.3.55,3.24c.37.93.92,1.66,1.66,2.18.73.52,1.65.78,2.75.78s2-.27,2.73-.82c.73-.54,1.29-1.28,1.66-2.22.37-.94.56-2,.56-3.18,0-1.26-.18-2.36-.54-3.29-.36-.93-.91-1.65-1.64-2.16-.73-.51-1.64-.76-2.74-.76s-2.01.26-2.76.79Zm-12.88-3.58c-.99.61-1.79,1.51-2.4,2.71-.6,1.19-.91,2.67-.91,4.44s.3,3.21.89,4.41,1.39,2.11,2.4,2.73c1.01.62,2.12.93,3.35.93,1.09,0,2-.16,2.75-.47.74-.32,1.33-.69,1.78-1.11l-.82-1.05c-.41.34-.91.64-1.49.9-.58.26-1.33.39-2.23.39s-1.8-.22-2.57-.65c-.77-.43-1.39-1.14-1.84-2.12-.46-.98-.68-2.3-.68-3.95s.24-3.03.72-4.01c.48-.98,1.11-1.68,1.9-2.09.79-.42,1.64-.63,2.55-.63.6,0,1.18.09,1.74.26s1.09.47,1.6.91l.89-1.02c-.61-.49-1.24-.85-1.91-1.1-.66-.25-1.49-.37-2.49-.37-1.16,0-2.23.3-3.22.91Zm-28.37,13.45c-.41-.42-.62-1.05-.62-1.88s.28-1.48.84-1.98c.56-.5,1.56-.75,2.98-.75h1.99v3.42c-.4.57-.88,1.02-1.45,1.34-.57.32-1.18.48-1.84.48-.86,0-1.5-.21-1.91-.63Zm6.67-6.9c0-1.13-.36-2.05-1.08-2.73-.72-.69-1.78-1.03-3.19-1.03-.56,0-1.13.05-1.72.16-.59.11-1.25.29-1.97.56l.41,1.16c.62-.22,1.19-.38,1.7-.47.51-.09.97-.14,1.37-.14.93,0,1.66.19,2.2.57.54.38.8,1.03.8,1.97v1.16h-1.81c-1.81,0-3.19.32-4.14.97-.95.65-1.42,1.58-1.42,2.8,0,1.12.34,2.01,1.02,2.68.68.67,1.61,1,2.8,1,.79,0,1.5-.15,2.13-.44s1.15-.72,1.57-1.27c.14.55.4.96.75,1.22.36.27.76.43,1.22.5l.39-1.04c-.35-.11-.61-.27-.78-.5-.17-.22-.25-.58-.25-1.07v-6.07Zm-12.6.22l.16-3.77h-1.44l-.09,1.43v2.34h1.37Zm-3.29,8.22v-1.19h-2.47v-5.57c.43-1.42.98-2.46,1.66-3.12.68-.66,1.5-.99,2.47-.99.26,0,.49.02.69.05.2.03.44.09.7.17l.4-1.34c-.27-.07-.53-.13-.78-.17-.25-.05-.53-.07-.84-.07-1.12,0-2.01.28-2.67.83-.66.55-1.22,1.31-1.7,2.29l-.26-2.88h-3.04v1.2h1.95v9.6h-1.95v1.19h5.83ZM17.4,1.74c-.21.22-.32.49-.32.8,0,.33.11.61.32.84.21.22.49.34.83.34.37,0,.65-.11.87-.34.21-.22.32-.5.32-.84,0-.31-.11-.58-.32-.8-.21-.22-.5-.33-.87-.33-.34,0-.62.11-.83.33Zm-2.92,5.09v1.23h3.68v9.52h-3.79v1.23h8.69v-1.23h-3.48V6.83h-5.09Zm-4.71-2.4l.19-1.3H1.05v15.68h1.44v-7.21h6.35v-1.27H2.48v-5.9h7.28Z"/><rect class="cls-1" width="120.02" height="20.1"/></svg>