<?xml version="1.0" encoding="UTF-8"?><svg id="Layer_1" xmlns="http://www.w3.org/2000/svg" viewBox="0 0 104.01 20.1"><defs><style>.cls-1{fill:none;}.cls-2{fill:#fff;}</style></defs><path class="cls-2" d="m95.86,7.16c-.64.24-1.18.58-1.63,1.01-.45.43-.79.95-1.02,1.53-.23.59-.35,1.23-.35,1.92v2.56c0,.74.12,1.41.36,2.01.24.6.59,1.12,1.06,1.54.47.43,1.07.75,1.8.98.73.22,1.58.34,2.55.34.57,0,1.13-.04,1.7-.12.57-.08,1.05-.17,1.46-.28.41-.11.66-.21.76-.32l.07-.09.02-.09v-2.48h-.43c-.32.1-.66.19-1.01.27-.36.08-.74.15-1.14.2-.41.05-.87.08-1.39.08-.46,0-.87-.04-1.23-.13-.36-.09-.64-.24-.86-.46-.15-.16-.26-.35-.34-.59-.08-.23-.12-.51-.12-.83v-2.76c0-.7.15-1.2.46-1.5.3-.3.78-.46,1.43-.46.32,0,.59.03.8.1.22.07.4.17.54.32.16.16.28.37.35.62.07.25.11.56.11.92v.28h-4.35v1.96h7.28l.12-.02.08-.08.02-.12v-1.87c0-.93-.2-1.75-.6-2.48-.4-.72-.97-1.3-1.71-1.72-.74-.42-1.62-.63-2.65-.63-.8,0-1.51.12-2.15.36Zm-14.62-.1h-1.59c.22.75.43,1.51.65,2.27s.43,1.51.65,2.25c.22.74.43,1.47.63,2.2.2.72.4,1.43.6,2.11.2.68.39,1.34.58,1.98.09.28.17.48.24.61.07.13.16.22.27.26.11.04.24.07.4.07h4.02c.28-.94.55-1.88.83-2.83.28-.94.55-1.89.81-2.84.27-.95.54-1.89.82-2.84.28-.94.55-1.88.83-2.83.03-.07.03-.14.01-.21s-.05-.12-.1-.15c-.04-.04-.11-.05-.2-.05h-3.04c-.13.55-.26,1.1-.39,1.66-.13.56-.26,1.13-.39,1.71-.13.58-.26,1.18-.4,1.81-.14.63-.28,1.29-.41,1.99-.14.7-.28,1.43-.42,2.22h-.43c-.23-1.32-.46-2.5-.68-3.53-.22-1.04-.45-2-.66-2.88-.22-.88-.43-1.75-.65-2.61-.01-.09-.04-.16-.08-.21l-.12-.12s-.1-.04-.17-.04h-1.59Zm-7.63-2.63c0,.07.02.13.07.17.04.04.1.07.17.07h3.89V1.65c0-.07-.02-.13-.07-.17-.04-.04-.1-.07-.17-.07h-3.89v3.02Zm.63,14.3s.1.07.17.07h3.02V7.3c0-.06-.01-.1-.03-.13l-.08-.08s-.07-.03-.13-.03h-4.63v2.67c0,.07.02.13.07.17s.1.07.17.07h1.37v8.58c0,.07.02.13.07.17Zm-9.94-2.9c-.38-.02-.75-.06-1.1-.11-.35-.05-.69-.12-1.02-.2-.33-.08-.67-.18-1.02-.32h-.43v2.8c0,.13.01.22.04.26.03.04.09.09.2.13.22.09.48.17.79.24.31.07.66.14,1.04.2.38.06.8.1,1.26.13.46.03.95.04,1.47.04,1.14,0,2.11-.16,2.89-.49.78-.33,1.37-.79,1.77-1.38.4-.59.6-1.29.6-2.09,0-.67-.14-1.23-.41-1.7-.28-.46-.67-.84-1.17-1.12-.51-.28-1.12-.47-1.85-.55l-2.02-.26c-.28-.04-.5-.09-.66-.15-.17-.06-.28-.14-.35-.24-.07-.1-.1-.22-.1-.35,0-.14.05-.27.16-.37.11-.1.31-.18.61-.24.3-.06.72-.09,1.27-.09.42,0,.82.01,1.2.04.38.03.75.08,1.12.14.37.07.75.15,1.14.25h.43v-2.72c0-.12,0-.21-.02-.27-.01-.07-.05-.12-.1-.15-.05-.04-.13-.07-.25-.1-.26-.07-.55-.13-.88-.18-.33-.05-.68-.09-1.06-.12-.38-.03-.8-.04-1.25-.04-.88,0-1.67.09-2.37.26-.7.17-1.28.43-1.76.77-.48.34-.84.75-1.1,1.24-.25.49-.38,1.05-.38,1.68,0,.55.12,1.05.35,1.49.23.44.58.81,1.04,1.1.46.29,1.04.49,1.74.59l2.26.3c.33.04.59.11.76.18.17.08.29.17.36.28.07.11.1.23.1.36,0,.19-.14.36-.41.52-.28.16-.82.24-1.63.24-.45,0-.87-.01-1.25-.03Zm-9.14.66V7.3c0-.06-.01-.1-.03-.13l-.08-.08s-.07-.03-.13-.03h-3.24v11.61s.05.08.05.08l.08.04h.11c.36.01.72.01,1.08.01h2.16v-2.3Zm-.43-4.37c.29-.36.57-.69.84-.98.27-.29.57-.52.89-.7.33-.17.71-.26,1.14-.26.22,0,.41.01.58.04.17.03.32.07.47.11h.43v-3.04c0-.06,0-.1-.02-.14l-.09-.12s-.14-.09-.28-.13c-.14-.04-.33-.07-.54-.07-.45,0-.84.08-1.16.25-.33.17-.59.42-.8.76-.21.34-.38.77-.51,1.29h-.93v2.98Zm-7.32-5.06h-2.02v11.5c0,.06.01.1.03.13l.09.08.12.03h3.02V7.3c0-.06-.01-.1-.03-.13l-.08-.08s-.07-.03-.13-.03h-1Zm-7.24,0h-1.52v8.69c0,.51.08.96.23,1.37.15.41.37.75.64,1.04.28.29.6.51.98.66.38.15.78.23,1.22.23.54,0,1-.08,1.39-.25.39-.17.74-.41,1.04-.73.3-.32.58-.7.83-1.15h.78v-2.74c-.19.28-.4.51-.63.71-.23.2-.47.36-.73.48-.25.12-.53.21-.81.27-.29.06-.6.09-.93.09-.23,0-.41-.07-.54-.22-.13-.14-.2-.33-.2-.57v-7.65c0-.06-.01-.1-.03-.13l-.08-.08s-.07-.03-.13-.03h-1.5Zm-10.04.45c-.84.47-1.5,1.12-1.97,1.93-.47.82-.71,1.76-.71,2.81v1.43c0,.84.13,1.59.38,2.26.25.67.63,1.23,1.12,1.7.49.46,1.09.81,1.78,1.05s1.48.36,2.35.36c.54,0,1.01-.03,1.41-.09.41-.06.74-.13.99-.22.25-.09.42-.17.49-.24l.05-.09v-.09c.01-.46.01-.93.01-1.4v-1.4h-.43c-.28.1-.55.18-.83.25-.28.07-.55.11-.84.14-.28.03-.58.04-.88.04-.33,0-.63-.04-.88-.12-.25-.08-.47-.21-.66-.38-.23-.2-.41-.47-.52-.79-.12-.33-.17-.71-.17-1.16v-1.22c0-.58.1-1.05.29-1.4.2-.35.46-.61.8-.77.34-.16.72-.24,1.14-.24.45,0,.88.03,1.3.1.42.07.83.18,1.24.34h.43v-2.9s-.07-.08-.07-.08c-.07-.09-.24-.17-.49-.25-.25-.08-.58-.15-.99-.21-.41-.06-.88-.09-1.41-.09-1.13,0-2.12.24-2.96.71Zm-12.5-.35c-.64.24-1.18.58-1.63,1.01-.45.43-.79.95-1.02,1.53-.23.59-.35,1.23-.35,1.92v2.56c0,.74.12,1.41.36,2.01.24.6.59,1.12,1.06,1.54.47.43,1.07.75,1.8.98.73.22,1.58.34,2.55.34.57,0,1.13-.04,1.7-.12.57-.08,1.05-.17,1.46-.28.41-.11.66-.21.76-.32l.07-.09.02-.09v-2.48h-.43c-.32.1-.66.19-1.01.27-.36.08-.74.15-1.14.2-.41.05-.87.08-1.39.08-.46,0-.87-.04-1.23-.13-.36-.09-.64-.24-.86-.46-.15-.16-.26-.35-.34-.59-.08-.23-.12-.51-.12-.83v-2.76c0-.7.15-1.2.46-1.5.3-.3.78-.46,1.43-.46.32,0,.59.03.8.1.22.07.4.17.54.32.16.16.28.37.35.62.07.25.11.56.11.92v.28h-4.35v1.96h7.28l.12-.02.08-.08.02-.12v-1.87c0-.93-.2-1.75-.6-2.48-.4-.72-.97-1.3-1.71-1.72-.74-.42-1.62-.63-2.65-.63-.8,0-1.51.12-2.15.36Zm-12.23,10.64V6.06l.26-.65h-3.63v13.15c0,.07.02.13.07.17.04.04.1.07.17.07h3.13v-1ZM1.05,4.93v1.35c0,.07.02.13.07.17.04.04.1.07.17.07h5.85c.28,0,.51.03.71.1s.35.16.47.27c.12.12.2.26.26.43.06.17.09.38.09.63v1.52c0,.32-.05.59-.16.8-.11.22-.28.38-.5.48-.22.1-.51.15-.86.15h-2.28v2.93l.24-.11h2.46c.7,0,1.32-.1,1.87-.29.55-.2,1.02-.48,1.41-.85.39-.37.69-.82.89-1.36.2-.54.3-1.14.3-1.8v-1.28c0-.7-.09-1.32-.27-1.88-.18-.56-.47-1.04-.87-1.45-.4-.41-.92-.71-1.55-.92-.64-.21-1.41-.32-2.33-.32H1.05v1.35Zm5.32,8.19c.38.71.74,1.42,1.1,2.13.35.71.71,1.42,1.08,2.13.2.39.43.69.67.89.25.2.54.34.89.41.35.07.78.11,1.3.11h.91c.07,0,.13-.02.17-.07s.07-.1.07-.17v-2.69h-.72c-.15,0-.26-.04-.36-.11-.09-.07-.2-.2-.32-.39-.35-.64-.67-1.22-.97-1.74-.3-.52-.63-1.1-.99-1.74l-2.85,1.24Z"/><rect class="cls-1" width="104.01" height="20.1"/></svg>