<?xml version="1.0" encoding="UTF-8"?><svg id="Layer_1" xmlns="http://www.w3.org/2000/svg" viewBox="0 0 52.15 20.1"><defs><style>.cls-1{fill:none;}.cls-2{fill:#fff;}</style></defs><path class="cls-2" d="m46.23,17.87v-6.76c0-.49.11-.92.33-1.29.22-.37.52-.67.91-.88.38-.21.82-.31,1.3-.31.23,0,.49.02.76.05.27.04.48.08.63.12v-2.91c-.14-.03-.3-.06-.5-.08-.19-.02-.37-.03-.53-.03-.67,0-1.26.19-1.77.57-.51.38-.88.94-1.1,1.67h-.12v-2.07h-3.15v11.9h3.25Zm-8.3-.22c.75-.3,1.36-.72,1.84-1.26.48-.54.79-1.18.95-1.91l-3.01-.2c-.11.3-.28.55-.5.76-.22.21-.48.36-.79.47-.31.11-.65.16-1.02.16-.55,0-1.03-.12-1.44-.35-.41-.24-.72-.57-.95-1-.22-.43-.33-.95-.33-1.54v-1.92c0-.48.12-.91.34-1.3.22-.39.52-.7.91-.94.39-.24.84-.35,1.34-.35s.91.11,1.28.32c.37.21.65.5.86.88.21.37.32.8.32,1.28h-6.96v2.03h10.03v-.9c0-1.02-.14-1.9-.43-2.66-.28-.75-.68-1.38-1.19-1.89-.51-.5-1.1-.88-1.78-1.13-.68-.25-1.41-.37-2.19-.37-1.16,0-2.17.26-3.04.77-.86.52-1.53,1.24-2.01,2.16-.48.92-.71,2-.71,3.22s.24,2.34.71,3.26c.47.92,1.15,1.62,2.03,2.12.88.5,1.93.75,3.15.75.98,0,1.85-.15,2.6-.45Zm-15.56-3c0,.77.16,1.42.49,1.93.33.51.79.89,1.39,1.13.59.24,1.29.35,2.08.32.42-.02.79-.06,1.08-.12.3-.07.53-.13.69-.19l-.51-2.43c-.08.02-.2.04-.36.07-.15.03-.31.04-.47.04-.22,0-.41-.03-.58-.1-.17-.07-.3-.19-.4-.36-.1-.17-.14-.41-.14-.73V3.12h-3.26v11.54Zm-1.63-8.69v2.46h7.14v-2.46h-7.14Zm-9.14,3.69c.19-.37.46-.65.8-.84s.74-.29,1.19-.29c.67,0,1.19.21,1.57.62.38.41.57.99.56,1.72v7h3.26v-7.58c0-.92-.17-1.72-.51-2.39-.34-.67-.82-1.18-1.43-1.55-.61-.36-1.34-.54-2.16-.54-.88,0-1.63.2-2.25.6-.62.4-1.06.95-1.33,1.64h-.14v-2.09h-3.1v11.9h3.25v-6.89c0-.52.1-.96.29-1.33ZM2,2v15.87h3.32V2h-3.32Z"/><rect class="cls-1" width="52.15" height="20.1"/></svg>