<?xml version="1.0" encoding="UTF-8"?><svg id="Layer_1" xmlns="http://www.w3.org/2000/svg" viewBox="0 0 114.8 20.1"><defs><style>.cls-1{fill:none;}.cls-2{fill:#fff;}</style></defs><path class="cls-2" d="m105.88,8.86c0-.46.06-.85.18-1.17.12-.32.31-.59.57-.79.26-.21.59-.36,1-.45.41-.1.89-.14,1.46-.14h1.43c.59,0,1.08.05,1.49.14.41.1.74.25,1,.45.26.21.45.47.57.79.12.32.18.71.18,1.17v1.38l-3.14.59v-1.71h-1.59v7.26h1.64v-1.78l3.14.64v1.28c0,.49-.06.9-.18,1.24-.12.34-.3.62-.56.83-.26.21-.59.37-.99.47-.41.1-.91.15-1.5.15h-1.48c-.59,0-1.08-.05-1.49-.15-.41-.1-.74-.26-.99-.47-.26-.21-.44-.49-.56-.83-.12-.34-.18-.75-.18-1.24v-7.66Zm-4.77-6.3c0-.27,0-.48.02-.63.01-.15.06-.26.13-.33.08-.07.19-.11.34-.13.15-.01.36-.02.64-.02h1.07c.28,0,.5,0,.65.02.15.01.26.05.34.13.08.07.12.18.13.33.01.15.02.36.02.63v1.03c0,.28,0,.49-.02.64-.01.15-.06.26-.13.34-.08.08-.19.12-.34.13-.15.01-.37.02-.65.02h-1.07c-.28,0-.49,0-.64-.02-.15-.01-.26-.06-.34-.13s-.12-.19-.13-.34c-.01-.15-.02-.36-.02-.64v-1.03Zm3.21,16.47V6.47h-3.09v12.56h3.09ZM91.82.85h3.14v6.76c.24-.43.54-.75.9-.97.36-.22.76-.33,1.21-.33h.4c.32,0,.61.05.89.16.27.11.5.26.69.46.19.2.33.44.44.72.1.28.16.6.16.95v10.43h-3.14v-9.91h-1.54v9.91h-3.14V.85Zm-3.93,18.21c-.39-.1-.69-.26-.93-.47-.23-.21-.4-.49-.5-.83-.1-.34-.14-.76-.14-1.25v-7.47h-.9v-2.56h.9v-3.06h3.14v3.06h1.23v2.56h-1.23v7.6h1.23l-.51,2.57h-.84c-.58,0-1.06-.05-1.44-.15Zm-7.98-2.67h1.72v-7.26h-1.72v7.26Zm-3.14-7.52c0-.45.06-.84.18-1.16.12-.32.31-.59.57-.8.26-.21.59-.36,1-.46.41-.1.89-.14,1.46-.14h1.57c1.15,0,1.97.2,2.47.6.5.4.75,1.05.75,1.96v7.66c0,.49-.06.9-.18,1.24-.12.34-.3.62-.56.83-.26.21-.59.37-.99.47-.41.1-.9.15-1.49.15h-1.57c-.58,0-1.07-.05-1.48-.15-.41-.1-.74-.26-1-.47-.26-.21-.45-.49-.57-.83-.12-.34-.18-.75-.18-1.24v-7.66Zm-10.52,6.81c0,.64.08,1.19.23,1.65.15.46.4.83.75,1.12.34.29.79.5,1.33.63.54.13,1.21.19,1.98.19h.55c.78,0,1.44-.06,2-.19.55-.13,1-.34,1.34-.63.34-.29.59-.66.75-1.12.16-.46.24-1.01.24-1.65v-6.76h-4.6v3.06h1.26v4.21h-2.5V4.3h2.4v2.42l3.34-.7v-1.36c0-.62-.08-1.15-.24-1.58-.16-.44-.41-.79-.76-1.07-.35-.28-.8-.48-1.35-.6-.55-.13-1.21-.19-1.98-.19h-.45c-.76,0-1.41.06-1.96.19-.54.13-.99.33-1.34.6-.35.28-.6.63-.76,1.07-.16.44-.24.96-.24,1.58v11Zm-9.11-4.24v-2.56h-1.57v2.56h1.57Zm-4.71-2.36c0-.44.07-.84.21-1.18.14-.34.35-.63.63-.87.28-.23.63-.41,1.06-.53.43-.12.93-.18,1.51-.18h1.02c.57,0,1.07.06,1.5.18.43.12.79.3,1.07.54.28.24.5.53.64.89.14.35.21.76.21,1.22v4.86h-4.71v2.65h1.57v-1.42l3.14.55v.18c0,.59-.07,1.08-.22,1.49-.15.41-.38.75-.7,1.01-.32.26-.74.46-1.24.58-.51.12-1.12.18-1.84.18h-.09c-.64,0-1.19-.06-1.66-.18-.47-.12-.86-.31-1.17-.57-.31-.26-.54-.6-.7-1.02-.15-.41-.23-.91-.23-1.5v-6.88Zm-9.13-.2c0-.46.06-.85.18-1.17.12-.32.31-.59.57-.79.26-.21.59-.36,1-.45.41-.1.89-.14,1.46-.14h1.43c.59,0,1.08.05,1.49.14.41.1.74.25,1,.45.26.21.45.47.57.79.12.32.18.71.18,1.17v1.38l-3.14.59v-1.71h-1.59v7.26h1.64v-1.78l3.14.64v1.28c0,.49-.06.9-.18,1.24-.12.34-.3.62-.56.83-.26.21-.59.37-.99.47-.41.1-.91.15-1.5.15h-1.48c-.59,0-1.08-.05-1.49-.15-.41-.1-.74-.26-.99-.47-.26-.21-.44-.49-.56-.83-.12-.34-.18-.75-.18-1.24v-7.66Zm-9.34-2.39h3.14v1.13c.24-.43.54-.75.9-.97.36-.22.76-.33,1.21-.33h.45c.32,0,.61.05.89.16.27.11.5.26.69.46s.33.44.44.72c.1.28.16.6.16.95v10.43h-3.14v-9.91h-1.59v9.91h-3.14V6.47Zm-4.64,4.95v-2.56h-1.57v2.56h1.57Zm-4.71-2.36c0-.44.07-.84.21-1.18.14-.34.35-.63.63-.87.28-.23.63-.41,1.06-.53.43-.12.93-.18,1.51-.18h1.02c.57,0,1.07.06,1.5.18.43.12.79.3,1.07.54.28.24.5.53.64.89.14.35.21.76.21,1.22v4.86h-4.71v2.65h1.57v-1.42l3.14.55v.18c0,.59-.07,1.08-.22,1.49-.15.41-.38.75-.7,1.01-.32.26-.74.46-1.24.58-.51.12-1.12.18-1.84.18h-.09c-.64,0-1.19-.06-1.66-.18-.47-.12-.86-.31-1.17-.57-.31-.26-.54-.6-.7-1.02-.15-.41-.23-.91-.23-1.5v-6.88Zm-4.77-6.5c0-.27,0-.48.02-.63.01-.15.06-.26.13-.33.08-.07.19-.11.34-.13.15-.01.36-.02.64-.02h1.07c.28,0,.5,0,.65.02.15.01.26.05.34.13.08.07.12.18.13.33.01.15.02.36.02.63v1.03c0,.28,0,.49-.02.64-.01.15-.06.26-.13.34-.08.08-.19.12-.34.13-.15.01-.37.02-.65.02h-1.07c-.28,0-.49,0-.64-.02-.15-.01-.26-.06-.34-.13-.08-.08-.12-.19-.13-.34-.01-.15-.02-.36-.02-.64v-1.03Zm3.21,16.47V6.47h-3.09v12.56h3.09Zm-12.34-10.17c0-.46.06-.85.18-1.17.12-.32.31-.59.57-.79.26-.21.59-.36,1-.45.41-.1.89-.14,1.46-.14h1.43c.59,0,1.08.05,1.49.14.41.1.74.25,1,.45.26.21.45.47.57.79.12.32.18.71.18,1.17v1.38l-3.14.59v-1.71h-1.59v7.26h1.64v-1.78l3.14.64v1.28c0,.49-.06.9-.18,1.24-.12.34-.3.62-.56.83-.26.21-.59.37-.99.47-.41.1-.91.15-1.5.15h-1.48c-.59,0-1.08-.05-1.49-.15-.41-.1-.74-.26-.99-.47-.26-.21-.44-.49-.56-.83-.12-.34-.18-.75-.18-1.24v-7.66Zm-6.48,4.77v2.55h2.25v-4.51h-.89c-.66,0-1.26-.05-1.79-.15-.53-.1-.98-.28-1.36-.55-.37-.26-.66-.63-.85-1.1-.2-.47-.3-1.08-.3-1.81v-3.39c0-.72.1-1.3.31-1.75.21-.45.49-.8.84-1.05.36-.25.77-.42,1.26-.51.48-.09,1-.13,1.55-.13h.21c.54,0,1.06.04,1.54.13.49.09.91.26,1.26.51.36.25.64.6.84,1.05.21.45.31,1.03.31,1.75v1.31l-3.19.63v-2.3h-1.76v4.31h.75c.64,0,1.24.04,1.78.13.54.09,1.01.26,1.41.51.4.25.71.6.93,1.05.22.45.33,1.03.33,1.75v3.62c0,.74-.1,1.34-.3,1.81-.2.47-.47.83-.83,1.1-.36.26-.78.44-1.29.54-.5.1-1.06.14-1.67.14h-.5c-.65,0-1.23-.05-1.73-.14-.5-.1-.93-.28-1.27-.54-.34-.26-.6-.63-.78-1.1-.18-.47-.26-1.07-.26-1.81v-1.38l3.19-.65Z"/><rect class="cls-1" width="114.8" height="20.1"/></svg>