<svg xmlns="http://www.w3.org/2000/svg" viewBox="0 0 20 20" width="20" height="20">
  <g>
    <circle cx="15.3" cy="4.7" r="1.2"/>
    <path d="M19.5,3.5A5.17,5.17,0,0,0,16.6.6,10.27,10.27,0,0,0,14.2.1,40.29,40.29,0,0,0,10,0,36.93,36.93,0,0,0,5.9.1,6.87,6.87,0,0,0,3.5.6a5,5,0,0,0-3,2.9A10.27,10.27,0,0,0,0,5.9V10a36.93,36.93,0,0,0,.1,4.1,6.87,6.87,0,0,0,.5,2.4,5.17,5.17,0,0,0,2.9,2.9,10.27,10.27,0,0,0,2.4.5A36.93,36.93,0,0,0,10,20a36.93,36.93,0,0,0,4.1-.1,6.87,6.87,0,0,0,2.4-.5,5.17,5.17,0,0,0,2.9-2.9,10.27,10.27,0,0,0,.5-2.4A36.93,36.93,0,0,0,20,10a36.93,36.93,0,0,0-.1-4.1A9.27,9.27,0,0,0,19.5,3.5ZM18.1,14a6.28,6.28,0,0,1-.3,1.9,3,3,0,0,1-1.9,1.9,5.82,5.82,0,0,1-1.9.3c-1.1,0-1.4.1-4,.1a34.75,34.75,0,0,1-4-.1,6.28,6.28,0,0,1-1.9-.3,3,3,0,0,1-1.9-1.9A5.82,5.82,0,0,1,1.9,14c0-1.1-.1-1.4-.1-4a34.75,34.75,0,0,1,.1-4,6.28,6.28,0,0,1,.3-1.9A3,3,0,0,1,4.1,2.2,5.82,5.82,0,0,1,6,1.9c1.1,0,1.4-.1,4-.1a34.75,34.75,0,0,1,4,.1,6.28,6.28,0,0,1,1.9.3,3,3,0,0,1,1.9,1.9A5.82,5.82,0,0,1,18.1,6c0,1.1.1,1.4.1,4A34.75,34.75,0,0,1,18.1,14Z"/>
    <path d="M10,4.9A5.1,5.1,0,1,0,15.1,10,5.12,5.12,0,0,0,10,4.9Zm0,8.4A3.3,3.3,0,1,1,13.3,10,3.33,3.33,0,0,1,10,13.3Z"/>
  </g>
</svg>
