<?xml version="1.0" standalone="no"?>
<!DOCTYPE svg PUBLIC "-//W3C//DTD SVG 20010904//EN"
 "http://www.w3.org/TR/2001/REC-SVG-20010904/DTD/svg10.dtd">
<svg version="1.0" xmlns="http://www.w3.org/2000/svg"
 width="700.000000pt" height="700.000000pt" viewBox="0 0 700.000000 700.000000"
 preserveAspectRatio="xMidYMid meet">
<metadata>
Created by potrace 1.14, written by Peter Selinger 2001-2017
</metadata>
<g transform="translate(0.000000,700.000000) scale(0.100000,-0.100000)"
fill="#000000" stroke="none">
<path d="M0 3500 l0 -3500 3500 0 3500 0 0 3500 0 3500 -3500 0 -3500 0 0
-3500z m5536 2930 l335 -334 -338 -338 c-185 -185 -338 -336 -340 -335 -5 4
-580 578 -627 625 l-48 50 333 335 c184 184 338 334 342 333 5 -1 159 -152
343 -336z m-1020 -1120 c-1 -429 2 -780 7 -780 4 0 156 149 338 331 l331 331
25 -24 c22 -21 645 -645 650 -651 1 -2 -150 -155 -335 -340 l-338 -338 -334
336 c-184 184 -337 335 -340 335 -3 0 -5 -812 -5 -1805 l1 -1804 -338 -338
-338 -338 -340 340 -339 339 338 339 339 338 0 1465 c0 806 -3 1463 -7 1459
-3 -3 -155 -154 -338 -336 l-331 -331 -336 336 c-184 185 -337 336 -338 336
-2 0 -3 -354 -3 -787 l0 -787 339 -339 338 -340 -338 -338 -339 -339 -341 342
-340 343 2 785 2 785 -339 340 -339 341 332 332 c183 182 336 334 340 338 4 3
158 -145 342 -330 185 -185 337 -336 339 -336 2 0 156 152 341 337 l337 337
339 -339 338 -338 1 434 c0 239 0 442 0 451 1 15 655 685 672 687 3 1 5 -350
5 -779z"/>
</g>
</svg>
