<svg xmlns="http://www.w3.org/2000/svg" viewBox="0 0 20 20" width="20" height="20">
  <path d="M10,.3A9.95,9.95,0,0,0,6.85,19.68c.5.1.68-.21.68-.48s0-.86,0-1.69c-2.77.6-3.35-1.33-3.35-1.33a2.65,2.65,0,0,0-1.11-1.46c-.9-.61.07-.6.07-.6a2.14,2.14,0,0,1,1.53,1A2.11,2.11,0,0,0,7.53,16h0a2.19,2.19,0,0,1,.63-1.33C6,14.39,3.65,13.54,3.65,9.73a3.82,3.82,0,0,1,1-2.67,3.6,3.6,0,0,1,.09-2.64s.84-.26,2.74,1a9.56,9.56,0,0,1,5,0c1.9-1.28,2.73-1,2.73-1a3.6,3.6,0,0,1,.1,2.64,3.81,3.81,0,0,1,1,2.67c0,3.82-2.32,4.66-4.54,4.9a2.39,2.39,0,0,1,.68,1.85c0,1.33,0,2.4,0,2.72s.18.58.69.48A9.95,9.95,0,0,0,10,.3Z"/>
</svg>
