<?xml version="1.0" encoding="utf-8"?>
<!-- Generator: Adobe Illustrator 27.4.0, SVG Export Plug-In . SVG Version: 6.00 Build 0)  -->
<svg version="1.1" id="Layer_1" xmlns="http://www.w3.org/2000/svg" xmlns:xlink="http://www.w3.org/1999/xlink" x="0px" y="0px"
	 viewBox="0 0 420 420" style="enable-background:new 0 0 420 420;" xml:space="preserve">
<style type="text/css">
	#Layer_1{background:white;}
	.st0{fill:#231F20;}
</style>
<g>
	<g>
		<path class="st0" d="M284.6,175v80h-20v-80H284.6 M289.6,170h-30v90h30V170L289.6,170z"/>
		<path class="st0" d="M259.6,147.1l22.9,22.9l-22.9,22.9L236.7,170L259.6,147.1 M259.6,140l-30,30l30,30l30-30L259.6,140L259.6,140
			z"/>
		<path class="st0" d="M289.6,237.1l22.9,22.9l-22.9,22.9L266.7,260L289.6,237.1 M289.6,230l-30,30l30,30l30-30L289.6,230L289.6,230
			z"/>
		<path class="st0" d="M319.6,147.1l22.9,22.9l-22.9,22.9L296.7,170L319.6,147.1 M319.6,140l-30,30l30,30l30-30L319.6,140L319.6,140
			z"/>
	</g>
	<g>
		<path class="st0" d="M159.8,127.6l22.8,22.8l-22.8,22.8l-22.8-22.8L159.8,127.6 M159.8,120.5L130,150.4l29.8,29.8l29.8-29.8
			L159.8,120.5L159.8,120.5L159.8,120.5z"/>
		<path class="st0" d="M100.2,127.6l22.8,22.8l-22.8,22.8l-22.8-22.8L100.2,127.6 M100.2,120.5l-29.8,29.8l29.8,29.8l29.8-29.8
			L100.2,120.5L100.2,120.5L100.2,120.5z"/>
		<path class="st0" d="M117.7,246.9l22.8,22.8l-22.8,22.8l-22.8-22.8L117.7,246.9 M117.7,239.8l-29.8,29.8l29.8,29.8l29.8-29.8
			L117.7,239.8L117.7,239.8z"/>
		<path class="st0" d="M125,155.4v109.3H92.8V155.4L125,155.4 M130,150.4H87.8v119.3H130V150.4L130,150.4z"/>
	</g>
</g>
</svg>
