<?xml version="1.0" encoding="UTF-8"?><svg id="Layer_1" xmlns="http://www.w3.org/2000/svg" viewBox="0 0 1120 440"><defs><style>#Layer_1{background:white;}.cls-1{stroke-dasharray:0 0 8.45 11.27;}.cls-1,.cls-2,.cls-3,.cls-4,.cls-5,.cls-6,.cls-7,.cls-8,.cls-9,.cls-10{fill:none;stroke:#231f20;stroke-linejoin:bevel;stroke-width:2px;}.cls-11{fill:#231f20;}.cls-2{stroke-dasharray:0 0 11.04 14.73;}.cls-3{stroke-dasharray:0 0 11.04 14.73;}.cls-4{stroke-dasharray:0 0 9.25 12.33;}.cls-5{stroke-dasharray:0 0 5.26 7.01;}.cls-6{stroke-dasharray:0 0 9.12 12.16;}.cls-12{opacity:.5;}.cls-8{stroke-dasharray:0 0 8.76 11.68;}.cls-9{stroke-dasharray:0 0 8.5 11.33;}.cls-10{stroke-dasharray:0 0 10.17 13.56;}</style></defs><g class="cls-12"><polygon class="cls-11" points="860 240 830 270 830 209 860 180 860 240"/><rect class="cls-11" x="868.79" y="158.79" width="42.43" height="42.43" transform="translate(387.95 -576.6) rotate(45)"/><rect class="cls-11" x="868.79" y="198.79" width="42.43" height="42.43" transform="translate(105.11 693.76) rotate(-45)"/><rect class="cls-11" x="838.79" y="248.79" width="42.43" height="42.43" transform="translate(60.97 687.19) rotate(-45)"/><polygon class="cls-11" points="610 330 580 360 580 140 610 110 610 330"/><polygon class="cls-11" points="140 240 110 270 110 210 140 180 140 240"/><polygon class="cls-11" points="460 240 430 270 430 210 460 180 460 240"/><polygon class="cls-11" points="520 240 490 270 490 210 520 180 520 240"/><polygon class="cls-11" points="400 240 370 270 370 210 400 180 400 240"/><polygon class="cls-11" points="340 240 310 270 310 209 340 180 340 240"/><polygon class="cls-11" points="240 240 210 270 210 250 240 220 240 240"/><polygon class="cls-11" points="300 300 270 330 270 210 300 180 300 300"/><polygon class="cls-11" points="680 240 650 270 650 220 680 190 680 240"/><polygon class="cls-11" points="740 240 710 270 710 140 740 110 740 240"/><polygon class="cls-11" points="800 240 770 270 770 140 800 110 800 240"/><rect class="cls-11" x="618.79" y="88.79" width="42.43" height="42.43" transform="translate(265.23 -420.33) rotate(45)"/><rect class="cls-11" x="558.79" y="308.79" width="42.43" height="42.43" transform="translate(403.22 -313.47) rotate(45)"/><rect class="cls-11" x="618.79" y="158.79" width="42.43" height="42.43" transform="translate(314.73 -399.83) rotate(45)"/><rect class="cls-11" x="88.79" y="158.79" width="42.43" height="42.43" transform="translate(159.5 -25.06) rotate(45)"/><rect class="cls-11" x="118.79" y="248.79" width="42.43" height="42.43" transform="translate(-149.91 178.08) rotate(-45)"/><rect class="cls-11" x="148.79" y="158.79" width="42.43" height="42.43" transform="translate(177.07 -67.49) rotate(45)"/><rect class="cls-11" x="408.79" y="158.79" width="42.43" height="42.43" transform="translate(253.22 -251.34) rotate(45)"/><rect class="cls-11" x="438.79" y="248.79" width="42.43" height="42.43" transform="translate(-56.19 404.35) rotate(-45)"/><rect class="cls-11" x="468.79" y="158.79" width="42.43" height="42.43" transform="translate(270.8 -293.76) rotate(45)"/><rect class="cls-11" x="498.79" y="248.79" width="42.43" height="42.43" transform="translate(-38.61 446.78) rotate(-45)"/><rect class="cls-11" x="348.79" y="158.79" width="42.43" height="42.43" transform="translate(235.65 -208.91) rotate(45)"/><rect class="cls-11" x="378.79" y="248.79" width="42.43" height="42.43" transform="translate(-73.76 361.92) rotate(-45)"/><rect class="cls-11" x="318.79" y="248.79" width="42.43" height="42.43" transform="translate(-91.34 319.5) rotate(-45)"/><rect class="cls-11" x="188.79" y="198.79" width="42.43" height="42.43" transform="translate(-94.06 212.93) rotate(-45)"/><rect class="cls-11" x="218.79" y="248.79" width="42.43" height="42.43" transform="translate(-120.62 248.79) rotate(-45)"/><rect class="cls-11" x="248.79" y="158.79" width="42.43" height="42.43" transform="translate(206.36 -138.2) rotate(45)"/><rect class="cls-11" x="218.79" y="308.79" width="42.43" height="42.43" transform="translate(303.64 -73.05) rotate(45)"/><rect class="cls-11" x="658.79" y="248.79" width="42.43" height="42.43" transform="translate(8.25 559.91) rotate(-45)"/><rect class="cls-11" x="688.79" y="88.79" width="42.43" height="42.43" transform="translate(285.74 -469.83) rotate(45)"/><rect class="cls-11" x="718.79" y="248.79" width="42.43" height="42.43" transform="translate(25.82 602.34) rotate(-45)"/><rect class="cls-11" x="748.79" y="88.79" width="42.43" height="42.43" transform="translate(303.31 -512.25) rotate(45)"/><rect class="cls-11" x="778.79" y="248.79" width="42.43" height="42.43" transform="translate(43.4 644.77) rotate(-45)"/><polygon class="cls-11" points="980 240 950 270 950 210 980 180 980 240"/><rect class="cls-11" x="928.79" y="158.79" width="42.43" height="42.43" transform="translate(405.53 -619.03) rotate(45)"/><rect class="cls-11" x="988.79" y="158.79" width="42.43" height="42.43" transform="translate(423.1 -661.46) rotate(45)"/><rect class="cls-11" x="958.79" y="248.79" width="42.43" height="42.43" transform="translate(96.12 772.05) rotate(-45)"/></g><g><polyline class="cls-7" points="366.82 266.82 370 270 370 265.5"/><polyline class="cls-8" points="370 253.82 370 210 347.31 187.31"/><polyline class="cls-7" points="343.18 183.18 340 180 340 184.5"/><polyline class="cls-8" points="340 196.18 340 240 362.69 262.69"/></g><g><polyline class="cls-7" points="426.82 266.82 430 270 430 265.5"/><polyline class="cls-8" points="430 253.82 430 210 407.31 187.31"/><polyline class="cls-7" points="403.18 183.18 400 180 400 184.5"/><polyline class="cls-8" points="400 196.18 400 240 422.69 262.69"/></g><g><polyline class="cls-7" points="486.82 266.82 490 270 490 265.5"/><polyline class="cls-8" points="490 253.82 490 210 467.31 187.31"/><polyline class="cls-7" points="463.18 183.18 460 180 460 184.5"/><polyline class="cls-8" points="460 196.18 460 240 482.69 262.69"/></g><g><polyline class="cls-7" points="860 215.5 860 220 863.18 216.82"/><line class="cls-5" x1="868.14" y1="211.86" x2="874.34" y2="205.66"/><polyline class="cls-7" points="876.82 203.18 880 200 876.82 196.82"/><line class="cls-5" x1="871.86" y1="191.86" x2="865.66" y2="185.66"/><polyline class="cls-7" points="863.18 183.18 860 180 860 184.5"/><line class="cls-1" x1="860" y1="195.77" x2="860" y2="209.86"/></g><g><polyline class="cls-7" points="243.18 296.82 240 300 243.18 303.18"/><line class="cls-6" x1="251.78" y1="311.78" x2="262.52" y2="322.52"/><polyline class="cls-7" points="266.82 326.82 270 330 270 325.5"/><line class="cls-9" x1="270" y1="314.17" x2="270" y2="280.17"/><polyline class="cls-7" points="270 274.5 270 270 266.82 273.18"/><line class="cls-6" x1="258.22" y1="281.78" x2="247.48" y2="292.52"/></g><g><polyline class="cls-7" points="166.82 266.82 170 270 170 265.5"/><polyline class="cls-8" points="170 253.82 170 210 147.31 187.31"/><polyline class="cls-7" points="143.18 183.18 140 180 140 184.5"/><polyline class="cls-8" points="140 196.18 140 240 162.69 262.69"/></g><g><polyline class="cls-7" points="1006.82 266.82 1010 270 1010 265.5"/><polyline class="cls-8" points="1010 253.82 1010 210 987.31 187.31"/><polyline class="cls-7" points="983.18 183.18 980 180 980 184.5"/><polyline class="cls-8" points="980 196.18 980 240 1002.69 262.69"/></g><g><polyline class="cls-7" points="706.82 266.82 710 270 710 265.5"/><polyline class="cls-4" points="710 253.17 710 140 687.54 117.54"/><polyline class="cls-7" points="683.18 113.18 680 110 680 114.5"/><polyline class="cls-4" points="680 126.83 680 240 702.46 262.46"/></g><g><polyline class="cls-7" points="766.82 266.82 770 270 770 265.5"/><polyline class="cls-4" points="770 253.17 770 140 747.54 117.54"/><polyline class="cls-7" points="743.18 113.18 740 110 740 114.5"/><polyline class="cls-4" points="740 126.83 740 240 762.46 262.46"/></g><g><polyline class="cls-7" points="641.82 148.18 645 145 641.82 141.82"/><line class="cls-3" x1="631.4" y1="131.41" x2="618.39" y2="118.39"/><polyline class="cls-7" points="613.18 113.18 610 110 610 114.5"/><line class="cls-10" x1="610" y1="128.06" x2="610" y2="168.72"/><polyline class="cls-7" points="610 175.5 610 180 613.18 176.82"/><line class="cls-2" x1="623.6" y1="166.41" x2="636.61" y2="153.39"/></g></svg>