<?xml version="1.0" encoding="utf-8"?>
<!-- Generator: Adobe Illustrator 27.3.1, SVG Export Plug-In . SVG Version: 6.00 Build 0)  -->
<svg version="1.1" id="Layer_1" xmlns="http://www.w3.org/2000/svg" xmlns:xlink="http://www.w3.org/1999/xlink" x="0px" y="0px"
	 viewBox="0 0 1120 440" style="enable-background:new 0 0 1120 440;" xml:space="preserve">
<style type="text/css">
	#Layer_1{background:white;}
	.st0{opacity:0.5;}
	.st1{fill:#231F20;}
	.st2{fill:none;stroke:#231F20;stroke-width:2;stroke-miterlimit:10;}
	.st3{fill:none;stroke:#231F20;stroke-width:2;stroke-miterlimit:10;stroke-dasharray:0,0,5.73,7.64;}
	.st4{fill:none;stroke:#231F20;stroke-width:2;stroke-miterlimit:10;stroke-dasharray:0,0,8.98,11.97;}
</style>
<g class="st0">
	<polygon class="st1" points="860,240 830,270 830,209 860,180 	"/>
	
		<rect x="868.8" y="158.8" transform="matrix(0.7071 -0.7071 0.7071 0.7071 133.3865 682.0461)" class="st1" width="42.4" height="42.4"/>
	
		<rect x="868.8" y="198.8" transform="matrix(0.7071 -0.7071 0.7071 0.7071 105.1142 693.765)" class="st1" width="42.4" height="42.4"/>
	
		<rect x="838.8" y="248.8" transform="matrix(0.7071 -0.7071 0.7071 0.7071 60.9737 687.1976)" class="st1" width="42.4" height="42.4"/>
	<polygon class="st1" points="610,330 580,360 580,140 610,110 	"/>
	<polygon class="st1" points="140,240 110,270 110,210 140,180 	"/>
	<polygon class="st1" points="460,240 430,270 430,210 460,180 	"/>
	<polygon class="st1" points="520,240 490,270 490,210 520,180 	"/>
	<polygon class="st1" points="400,240 370,270 370,210 400,180 	"/>
	<polygon class="st1" points="340,240 310,270 310,209 340,180 	"/>
	<polygon class="st1" points="240,240 210,270 210,250 240,220 	"/>
	<polygon class="st1" points="300,300 270,330 270,210 300,180 	"/>
	<polygon class="st1" points="680,240 650,270 650,220 680,190 	"/>
	<polygon class="st1" points="740,240 710,270 710,140 740,110 	"/>
	<polygon class="st1" points="800,240 770,270 770,140 800,110 	"/>
	
		<rect x="618.8" y="88.8" transform="matrix(0.7071 -0.7071 0.7071 0.7071 109.6639 484.7663)" class="st1" width="42.4" height="42.4"/>
	
		<rect x="558.8" y="308.8" transform="matrix(0.7071 -0.7071 0.7071 0.7071 -63.4711 506.7756)" class="st1" width="42.4" height="42.4"/>
	
		<rect x="618.8" y="158.8" transform="matrix(0.7071 -0.7071 0.7071 0.7071 60.1689 505.2698)" class="st1" width="42.4" height="42.4"/>
	
		<rect x="88.8" y="158.8" transform="matrix(0.7071 -0.7071 0.7071 0.7071 -95.0659 130.5067)" class="st1" width="42.4" height="42.4"/>
	
		<rect x="118.8" y="248.8" transform="matrix(0.7071 -0.7071 0.7071 0.7071 -149.9133 178.0849)" class="st1" width="42.4" height="42.4"/>
	
		<rect x="148.8" y="158.8" transform="matrix(0.7071 -0.7071 0.7071 0.7071 -77.4908 172.9295)" class="st1" width="42.4" height="42.4"/>
	
		<rect x="408.8" y="158.8" transform="matrix(0.7071 -0.7071 0.7071 0.7071 -1.3377 356.775)" class="st1" width="42.4" height="42.4"/>
	
		<rect x="438.8" y="248.8" transform="matrix(0.7071 -0.7071 0.7071 0.7071 -56.1863 404.3538)" class="st1" width="42.4" height="42.4"/>
	
		<rect x="468.8" y="158.8" transform="matrix(0.7071 -0.7071 0.7071 0.7071 16.2333 399.2078)" class="st1" width="42.4" height="42.4"/>
	
		<rect x="498.8" y="248.8" transform="matrix(0.7071 -0.7071 0.7071 0.7071 -38.6133 446.7857)" class="st1" width="42.4" height="42.4"/>
	
		<rect x="348.8" y="158.8" transform="matrix(0.7071 -0.7071 0.7071 0.7071 -18.9127 314.3522)" class="st1" width="42.4" height="42.4"/>
	
		<rect x="378.8" y="248.8" transform="matrix(0.7071 -0.7071 0.7071 0.7071 -73.7563 361.9288)" class="st1" width="42.4" height="42.4"/>
	
		<rect x="318.8" y="248.8" transform="matrix(0.7071 -0.7071 0.7071 0.7071 -91.3363 319.4998)" class="st1" width="42.4" height="42.4"/>
	
		<rect x="188.8" y="198.8" transform="matrix(0.7071 -0.7071 0.7071 0.7071 -94.0558 212.9314)" class="st1" width="42.4" height="42.4"/>
	
		<rect x="218.8" y="248.8" transform="matrix(0.7071 -0.7071 0.7071 0.7071 -120.6233 248.7959)" class="st1" width="42.4" height="42.4"/>
	
		<rect x="248.8" y="158.8" transform="matrix(0.7071 -0.7071 0.7071 0.7071 -48.2018 243.6408)" class="st1" width="42.4" height="42.4"/>
	
		<rect x="218.8" y="308.8" transform="matrix(0.7071 -0.7071 0.7071 0.7071 -163.0564 266.363)" class="st1" width="42.4" height="42.4"/>
	
		<rect x="658.8" y="248.8" transform="matrix(0.7071 -0.7071 0.7071 0.7071 8.2537 559.9186)" class="st1" width="42.4" height="42.4"/>
	
		<rect x="688.8" y="88.8" transform="matrix(0.7071 -0.7071 0.7071 0.7071 130.1703 534.2682)" class="st1" width="42.4" height="42.4"/>
	
		<rect x="718.8" y="248.8" transform="matrix(0.7071 -0.7071 0.7071 0.7071 25.8237 602.3436)" class="st1" width="42.4" height="42.4"/>
	
		<rect x="748.8" y="88.8" transform="matrix(0.7071 -0.7071 0.7071 0.7071 147.7384 576.694)" class="st1" width="42.4" height="42.4"/>
	
		<rect x="778.8" y="248.8" transform="matrix(0.7071 -0.7071 0.7071 0.7071 43.3966 644.7756)" class="st1" width="42.4" height="42.4"/>
	<polygon class="st1" points="980,240 950,270 950,210 980,180 	"/>
	
		<rect x="928.8" y="158.8" transform="matrix(0.7071 -0.7071 0.7071 0.7071 150.9646 724.476)" class="st1" width="42.4" height="42.4"/>
	
		<rect x="988.8" y="158.8" transform="matrix(0.7071 -0.7071 0.7071 0.7071 168.5396 766.8989)" class="st1" width="42.4" height="42.4"/>
	
		<rect x="958.8" y="248.8" transform="matrix(0.7071 -0.7071 0.7071 0.7071 96.1166 772.0545)" class="st1" width="42.4" height="42.4"/>
</g>
<g>
	<polyline class="st2" points="210,435.5 210,445 214.5,445 	"/>
	<line class="st3" x1="222.1" y1="445" x2="231.7" y2="445"/>
	<polyline class="st2" points="235.5,445 240,445 240,435.5 	"/>
	<line class="st4" x1="240" y1="423.5" x2="240" y2="10.5"/>
	<polyline class="st2" points="240,4.5 240,-5 235.5,-5 	"/>
	<line class="st3" x1="227.9" y1="-5" x2="218.3" y2="-5"/>
	<polyline class="st2" points="214.5,-5 210,-5 210,4.5 	"/>
	<line class="st4" x1="210" y1="16.5" x2="210" y2="429.5"/>
</g>
<g>
	<polyline class="st2" points="110,435.5 110,445 114.5,445 	"/>
	<line class="st3" x1="122.1" y1="445" x2="131.7" y2="445"/>
	<polyline class="st2" points="135.5,445 140,445 140,435.5 	"/>
	<line class="st4" x1="140" y1="423.5" x2="140" y2="10.5"/>
	<polyline class="st2" points="140,4.5 140,-5 135.5,-5 	"/>
	<line class="st3" x1="127.9" y1="-5" x2="118.3" y2="-5"/>
	<polyline class="st2" points="114.5,-5 110,-5 110,4.5 	"/>
	<line class="st4" x1="110" y1="16.5" x2="110" y2="429.5"/>
</g>
<g>
	<polyline class="st2" points="270,435.5 270,445 274.5,445 	"/>
	<line class="st3" x1="282.1" y1="445" x2="291.7" y2="445"/>
	<polyline class="st2" points="295.5,445 300,445 300,435.5 	"/>
	<line class="st4" x1="300" y1="423.5" x2="300" y2="10.5"/>
	<polyline class="st2" points="300,4.5 300,-5 295.5,-5 	"/>
	<line class="st3" x1="287.9" y1="-5" x2="278.3" y2="-5"/>
	<polyline class="st2" points="274.5,-5 270,-5 270,4.5 	"/>
	<line class="st4" x1="270" y1="16.5" x2="270" y2="429.5"/>
</g>
<g>
	<polyline class="st2" points="310,435.5 310,445 314.5,445 	"/>
	<line class="st3" x1="322.1" y1="445" x2="331.7" y2="445"/>
	<polyline class="st2" points="335.5,445 340,445 340,435.5 	"/>
	<line class="st4" x1="340" y1="423.5" x2="340" y2="10.5"/>
	<polyline class="st2" points="340,4.5 340,-5 335.5,-5 	"/>
	<line class="st3" x1="327.9" y1="-5" x2="318.3" y2="-5"/>
	<polyline class="st2" points="314.5,-5 310,-5 310,4.5 	"/>
	<line class="st4" x1="310" y1="16.5" x2="310" y2="429.5"/>
</g>
<g>
	<polyline class="st2" points="370,435.5 370,445 374.5,445 	"/>
	<line class="st3" x1="382.1" y1="445" x2="391.7" y2="445"/>
	<polyline class="st2" points="395.5,445 400,445 400,435.5 	"/>
	<line class="st4" x1="400" y1="423.5" x2="400" y2="10.5"/>
	<polyline class="st2" points="400,4.5 400,-5 395.5,-5 	"/>
	<line class="st3" x1="387.9" y1="-5" x2="378.3" y2="-5"/>
	<polyline class="st2" points="374.5,-5 370,-5 370,4.5 	"/>
	<line class="st4" x1="370" y1="16.5" x2="370" y2="429.5"/>
</g>
<g>
	<polyline class="st2" points="430,435.5 430,445 434.5,445 	"/>
	<line class="st3" x1="442.1" y1="445" x2="451.7" y2="445"/>
	<polyline class="st2" points="455.5,445 460,445 460,435.5 	"/>
	<line class="st4" x1="460" y1="423.5" x2="460" y2="10.5"/>
	<polyline class="st2" points="460,4.5 460,-5 455.5,-5 	"/>
	<line class="st3" x1="447.9" y1="-5" x2="438.3" y2="-5"/>
	<polyline class="st2" points="434.5,-5 430,-5 430,4.5 	"/>
	<line class="st4" x1="430" y1="16.5" x2="430" y2="429.5"/>
</g>
<g>
	<polyline class="st2" points="490,435.5 490,445 494.5,445 	"/>
	<line class="st3" x1="502.1" y1="445" x2="511.7" y2="445"/>
	<polyline class="st2" points="515.5,445 520,445 520,435.5 	"/>
	<line class="st4" x1="520" y1="423.5" x2="520" y2="10.5"/>
	<polyline class="st2" points="520,4.5 520,-5 515.5,-5 	"/>
	<line class="st3" x1="507.9" y1="-5" x2="498.3" y2="-5"/>
	<polyline class="st2" points="494.5,-5 490,-5 490,4.5 	"/>
	<line class="st4" x1="490" y1="16.5" x2="490" y2="429.5"/>
</g>
<g>
	<polyline class="st2" points="580,435.5 580,445 584.5,445 	"/>
	<line class="st3" x1="592.1" y1="445" x2="601.7" y2="445"/>
	<polyline class="st2" points="605.5,445 610,445 610,435.5 	"/>
	<line class="st4" x1="610" y1="423.5" x2="610" y2="10.5"/>
	<polyline class="st2" points="610,4.5 610,-5 605.5,-5 	"/>
	<line class="st3" x1="597.9" y1="-5" x2="588.3" y2="-5"/>
	<polyline class="st2" points="584.5,-5 580,-5 580,4.5 	"/>
	<line class="st4" x1="580" y1="16.5" x2="580" y2="429.5"/>
</g>
<g>
	<polyline class="st2" points="650,435.5 650,445 654.5,445 	"/>
	<line class="st3" x1="662.1" y1="445" x2="671.7" y2="445"/>
	<polyline class="st2" points="675.5,445 680,445 680,435.5 	"/>
	<line class="st4" x1="680" y1="423.5" x2="680" y2="10.5"/>
	<polyline class="st2" points="680,4.5 680,-5 675.5,-5 	"/>
	<line class="st3" x1="667.9" y1="-5" x2="658.3" y2="-5"/>
	<polyline class="st2" points="654.5,-5 650,-5 650,4.5 	"/>
	<line class="st4" x1="650" y1="16.5" x2="650" y2="429.5"/>
</g>
<g>
	<polyline class="st2" points="710,435.5 710,445 714.5,445 	"/>
	<line class="st3" x1="722.1" y1="445" x2="731.7" y2="445"/>
	<polyline class="st2" points="735.5,445 740,445 740,435.5 	"/>
	<line class="st4" x1="740" y1="423.5" x2="740" y2="10.5"/>
	<polyline class="st2" points="740,4.5 740,-5 735.5,-5 	"/>
	<line class="st3" x1="727.9" y1="-5" x2="718.3" y2="-5"/>
	<polyline class="st2" points="714.5,-5 710,-5 710,4.5 	"/>
	<line class="st4" x1="710" y1="16.5" x2="710" y2="429.5"/>
</g>
<g>
	<polyline class="st2" points="770,435.5 770,445 774.5,445 	"/>
	<line class="st3" x1="782.1" y1="445" x2="791.7" y2="445"/>
	<polyline class="st2" points="795.5,445 800,445 800,435.5 	"/>
	<line class="st4" x1="800" y1="423.5" x2="800" y2="10.5"/>
	<polyline class="st2" points="800,4.5 800,-5 795.5,-5 	"/>
	<line class="st3" x1="787.9" y1="-5" x2="778.3" y2="-5"/>
	<polyline class="st2" points="774.5,-5 770,-5 770,4.5 	"/>
	<line class="st4" x1="770" y1="16.5" x2="770" y2="429.5"/>
</g>
<g>
	<polyline class="st2" points="830,435.5 830,445 834.5,445 	"/>
	<line class="st3" x1="842.1" y1="445" x2="851.7" y2="445"/>
	<polyline class="st2" points="855.5,445 860,445 860,435.5 	"/>
	<line class="st4" x1="860" y1="423.5" x2="860" y2="10.5"/>
	<polyline class="st2" points="860,4.5 860,-5 855.5,-5 	"/>
	<line class="st3" x1="847.9" y1="-5" x2="838.3" y2="-5"/>
	<polyline class="st2" points="834.5,-5 830,-5 830,4.5 	"/>
	<line class="st4" x1="830" y1="16.5" x2="830" y2="429.5"/>
</g>
<g>
	<polyline class="st2" points="950,435.5 950,445 954.5,445 	"/>
	<line class="st3" x1="962.1" y1="445" x2="971.7" y2="445"/>
	<polyline class="st2" points="975.5,445 980,445 980,435.5 	"/>
	<line class="st4" x1="980" y1="423.5" x2="980" y2="10.5"/>
	<polyline class="st2" points="980,4.5 980,-5 975.5,-5 	"/>
	<line class="st3" x1="967.9" y1="-5" x2="958.3" y2="-5"/>
	<polyline class="st2" points="954.5,-5 950,-5 950,4.5 	"/>
	<line class="st4" x1="950" y1="16.5" x2="950" y2="429.5"/>
</g>
</svg>
