<?xml version="1.0" encoding="utf-8"?>
<!-- Generator: Adobe Illustrator 27.4.0, SVG Export Plug-In . SVG Version: 6.00 Build 0)  -->
<svg version="1.1" id="Layer_1" xmlns="http://www.w3.org/2000/svg" xmlns:xlink="http://www.w3.org/1999/xlink" x="0px" y="0px"
	 viewBox="0 0 1410 440" style="enable-background:new 0 0 1410 440;" xml:space="preserve">
<style type="text/css">
	#Layer_1{background:white;}
	.st0{fill:#231F20;}
</style>
<g>
	<path class="st0" d="M860,180v60l30,30l-30,30l-30-30v-61L860,180z M860,180l20,20l-20,20l30,30l30-30l-20-20l20-20l-30-30L860,180
		z"/>
	<path class="st0" d="M400,240l30,30l-30,30l-30-30v-60l-30-30l30-30l30,30V240z M340,180l-30,29v61l30,30l30-30l-30-30V180z"/>
	<path class="st0" d="M680,240l30,30l-30,30l-30-30v-50l30-30V240z"/>
	<path class="st0" d="M740,240l30,30l-30,30l-30-30V140l-30-30l30-30l30,30V240z"/>
	<path class="st0" d="M800,240l30,30l-30,30l-30-30V140l-30-30l30-30l30,30V240z"/>
	<path class="st0" d="M610,110v220l-30,30l-30-30l30-30V140L610,110z M670,110l-30-30l-30,30l30,30L670,110z M640,150l-30,30l30,30
		l30-30L640,150z"/>
	<path class="st0" d="M140,180v60l30,30l-30,30l-30-30v-60l-30-30l30-30L140,180z M200,180l-30-30l-30,30l30,30L200,180z"/>
	<path class="st0" d="M460,240l30,30l-30,30l-30-30v-60l-30-30l30-30l30,30V240z M550,270l-30,30l-30-30v-60l-30-30l30-30l30,30v60
		L550,270z"/>
	<path class="st0" d="M270,270l-30,30l-30-30v-20l-30-30l30-30l30,30v20L270,270z M240,180l30,30v120l30-30V180l-30-30L240,180z
		 M210,330l30,30l30-30l-30-30L210,330z"/>
	<path class="st0" d="M980,180v60l30,30l-30,30l-30-30v-60l-30-30l30-30L980,180z M1040,180l-30-30l-30,30l30,30L1040,180z"/>
</g>
<path class="st0" d="M1270,110v220l-30,30l-30-30l30-30V140L1270,110z M1330,110l-30-30l-30,30l30,30L1330,110z M1300,150l-30,30
	l30,30l30-30L1300,150z"/>
<path class="st0" d="M1180,180v60l30,30l-30,30l-30-30v-60l-30-30l30-30L1180,180z M1240,180l-30-30l-30,30l30,30L1240,180z"/>
</svg>
