<?xml version="1.0" encoding="UTF-8"?>
<svg xmlns="http://www.w3.org/2000/svg" viewBox="0 0 480 145" preserveAspectRatio="xMinYMin slice">
  <path class="r one" d="m15,35L0,50l15,15v35l15,15,15-15-15-15v-35l-15-15Zm45,15l-15-15-15,15,15,15,15-15Z"/>
  <path class="y" d="m80,85v-15l-15-15-15,15,15,15v15l15,15,15-15-15-15Zm0-35l15,15v65l15-15V50l-15-15-15,15Zm-15,80l15,15,15-15-15-15-15,15Z"/>
  <path class="a" d="m160,50l-15-15-15,15,15,15v35l15,15,15-15-15-15v-35Zm-30,0l-15,14.5v35.5l15,15,15-15-15-15v-35Z"/>
  <path class="n" d="m190,50l-15-15-15,15,15,15v35l15,15,15-15-15-15v-35Zm30,35v-35l-15-15-15,15,15,15v35l15,15,15-15-15-15Z"/>
  <path class="f" d="m250,30v85l-15,15,15,15,15-15V15l-15,15Zm45-15l-15-15-15,15,15,15,15-15Zm-15,20l-15,15,15,15,15-15-15-15Z"/>
  <path class="i" d="m300,55l-15,15v30l15,15,15-15-15-15v-30Z"/>
  <path class="l one" d="m330,15l-15-15-15,15,15,15v70l15,15,15-15-15-15V15Z"/>
  <path class="l two" d="m360,15l-15-15-15,15,15,15v70l15,15,15-15-15-15V15Z"/>
  <path class="e" d="m390,50v35l15,15-15,15-15-15v-35.5l15-14.5Zm0,0l12.5,12.5-12.5,12.5,15,15,15-15-12.5-12.5,12.5-12.5-15-15-15,15Z"/>
  <path class="r two" d="m435,35l-15,15,15,15v35l15,15,15-15-15-15v-35l-15-15Zm45,15l-15-15-15,15,15,15,15-15Z"/>
</svg>
