<svg xmlns="http://www.w3.org/2000/svg" viewBox="0 0 275 212.5">
  <polygon points="6.25 68.75 31.25 68.75 43.75 56.25 56.25 56.25 68.75 43.75 81.25 43.75 93.75 31.25 106.25 31.25 131.25 6.25 156.25 6.25 156.25 31.25 131.25 56.25 256.25 56.25 268.75 68.75 268.75 81.25 256.25 93.75 206.25 93.75 206.25 118.75 193.75 131.25 193.75 156.25 181.25 168.75 181.25 181.25 156.25 206.25 81.25 206.25 68.75 193.75 43.75 193.75 31.25 181.25 6.25 181.25 6.25 68.75" fill="#fff"/>
  <path d="M37.5,75h-25V175h25v12.5H0V62.5H37.5Zm25-25h-25V62.5h25Zm25-12.5h-25V50h25Zm25-12.5h-25V37.5h25ZM125,12.5H112.5V25H125Zm150,50H262.5v25H275ZM75,187.5H37.5V200H75ZM162.5,200H75v12.5h87.5ZM175,187.5H162.5V200H175Zm-37.5-25V175H175v12.5h12.5v-25ZM150,125v12.5h37.5v25H200V125ZM125,0V12.5h25v25h12.5V0Zm25,37.5H137.5V50H125V62.5H262.5V50H150Zm0,50V100h50v25h12.5V100h50V87.5Z"/>
</svg>
