<svg xmlns="http://www.w3.org/2000/svg" viewBox="0 0 20 20" width="20" height="20">
  <path d="M19.93,6.82s0-.05,0-.07,0,0,0,0a.14.14,0,0,0,0-.06s0,0,0-.05l0,0a.05.05,0,0,0,0,0,.1.1,0,0,0,0,0l0,0,0,0,0,0-.05,0,0,0h0L10.47.2a.85.85,0,0,0-.94,0L.43,6.26h0l0,0,0,0,0,0,0,0,0,0a.1.1,0,0,0,0,0,.05.05,0,0,0,0,0l0,0,0,.05a.14.14,0,0,0,0,.06s0,0,0,0,0,0,0,.07,0,0,0,0,0,.07,0,.11V13s0,.08,0,.11v0s0,.05,0,.07l0,0a.25.25,0,0,0,0,.07l0,0,0,0,0,0a.1.1,0,0,0,0,0l0,0,0,.05,0,0,0,0,0,0h0l9.1,6.06a.85.85,0,0,0,.94,0l9.1-6.06h0l0,0,.05,0,0,0,0-.05,0,0a.1.1,0,0,0,0,0l0,0,0,0,0,0a.25.25,0,0,0,0-.07l0,0s0-.05,0-.07v0s0-.07,0-.11V7s0-.08,0-.11ZM10.85,2.51,17.55,7l-3,2L10.85,6.49Zm-1.7,0v4L5.44,9l-3-2ZM1.76,8.57,3.9,10,1.76,11.43Zm7.39,8.92L2.45,13l3-2,3.71,2.48ZM10,12,7,10l3-2,3,2Zm.85,5.47v-4L14.56,11l3,2Zm7.39-6.06L16.1,10l2.14-1.43Z"/>
</svg>
