<?xml version="1.0" encoding="UTF-8"?>
<svg xmlns="http://www.w3.org/2000/svg" viewBox="0 0 960 280" preserveAspectRatio="xMinYMin slice">>
  <path class="r one" d="m60,100v60l30,30-30,30-30-30v-60L0,100l30-30,30,30Zm60,0l-30-30-30,30,30,30,30-30Z"/>
  <path class="y" d="m190,190l-30,30-30-30v-20l-30-30,30-30,30,30v20l30,30Zm-30-90l30,30v120l30-30v-120l-30-30-30,30Zm-30,150l30,30,30-30-30-30-30,30Z"/>
  <path class="a" d="m320,160l30,30-30,30-30-30v-60l-30-30,30-30,30,30v60Zm-60-60l-30,29v61l30,30,30-30-30-30v-60Z"/>
  <path class="n" d="m380,160l30,30-30,30-30-30v-60l-30-30,30-30,30,30v60Zm90,30l-30,30-30-30v-60l-30-30,30-30,30,30v60l30,30Z"/>
  <path class="f" d="m530,30v220l-30,30-30-30,30-30V60l30-30Zm60,0l-30-30-30,30,30,30,30-30Zm-30,40l-30,30,30,30,30-30-30-30Z"/>
  <path class="i" d="m600,160l30,30-30,30-30-30v-50l30-30v50Z"/>
  <path class="l one" d="m660,160l30,30-30,30-30-30V60l-30-30,30-30,30,30v130Z"/>
  <path class="l two" d="m720,160l30,30-30,30-30-30V60l-30-30,30-30,30,30v130Z"/>
  <path class="e" d="m780,100v60l30,30-30,30-30-30v-61l30-29Zm0,0l20,20-20,20,30,30,30-30-20-20,20-20-30-30-30,30Z"/>
  <path class="r two" d="m900,100v60l30,30-30,30-30-30v-60l-30-30,30-30,30,30Zm60,0l-30-30-30,30,30,30,30-30Z"/>
</svg>
