<?xml version="1.0" encoding="utf-8"?>
<!-- Generator: Adobe Illustrator 27.2.0, SVG Export Plug-In . SVG Version: 6.00 Build 0)  -->
<svg version="1.1" id="Layer_1" xmlns="http://www.w3.org/2000/svg" xmlns:xlink="http://www.w3.org/1999/xlink" x="0px" y="0px"
	 viewBox="0 0 420 420" style="enable-background:new 0 0 420 420;" xml:space="preserve">
<style type="text/css">
	#Layer_1{background:white;}
	.st0{opacity:0.25;fill:#231F20;enable-background:new    ;}
	.st1{opacity:0.25;}
	.st2{fill:#231F20;}
</style>
<rect x="270" y="18.7" transform="matrix(0.7071 -0.7071 0.7071 0.7071 57.0758 217.5321)" class="st0" width="42.2" height="42.2"/>
<rect x="270" y="168.1" transform="matrix(0.7071 -0.7071 0.7071 0.7071 -48.5391 261.2821)" class="st0" width="42.2" height="42.2"/>
<g class="st1">
	<polygon points="219,82.1 219,129.5 261.2,129.5 261.2,39.9 	"/>
</g>
<g class="st1">
	<polygon points="261.2,367.8 261.2,129.5 219,129.5 219,410 	"/>
	<rect x="197.9" y="359" transform="matrix(0.7071 -0.7071 0.7071 0.7071 -204.6452 266.1924)" width="42.2" height="42.2"/>
</g>
<g class="st1">
	
		<rect x="167.8" y="168.9" transform="matrix(0.7071 -0.7071 0.7071 0.7071 -79.0354 189.2097)" class="st2" width="42.2" height="42.2"/>
	
		<rect x="108" y="168.9" transform="matrix(0.7071 -0.7071 0.7071 0.7071 -96.5283 146.9632)" class="st2" width="42.3" height="42.2"/>
	
		<rect x="125.5" y="288.4" transform="matrix(0.7071 -0.7071 0.7071 0.7071 -175.8914 194.3393)" class="st2" width="42.3" height="42.2"/>
	<rect x="116.8" y="190" width="42.3" height="119.5"/>
</g>
<g>
	<polygon class="st2" points="249,339.2 219,369.2 219,149.2 249,119.2 	"/>
	<rect x="257.8" y="98" transform="matrix(0.7071 -0.7071 0.7071 0.7071 -2.5956 232.21)" class="st2" width="42.4" height="42.4"/>
	
		<rect x="197.8" y="318" transform="matrix(0.7071 -0.7071 0.7071 0.7071 -175.7306 254.2193)" class="st2" width="42.4" height="42.4"/>
	
		<rect x="257.8" y="168" transform="matrix(0.7071 -0.7071 0.7071 0.7071 -52.0906 252.7136)" class="st2" width="42.4" height="42.4"/>
</g>
<g>
	<polygon class="st2" points="159,250 129,280 129,220 159,190 	"/>
	
		<rect x="107.8" y="168.8" transform="matrix(0.7071 -0.7071 0.7071 0.7071 -96.571 146.8652)" class="st2" width="42.4" height="42.4"/>
	
		<rect x="137.8" y="258.8" transform="matrix(0.7071 -0.7071 0.7071 0.7071 -151.4178 194.445)" class="st2" width="42.4" height="42.4"/>
	
		<rect x="167.8" y="168.8" transform="matrix(0.7071 -0.7071 0.7071 0.7071 -78.993 189.2951)" class="st2" width="42.4" height="42.4"/>
</g>
</svg>
