<?xml version="1.0" encoding="UTF-8"?><svg id="Layer_1" xmlns="http://www.w3.org/2000/svg" viewBox="0 0 1100 420"><defs><style>#Layer_1{background:white;}.cls-1{fill:#231f20;}.cls-2{fill:none;stroke:#231f20;stroke-miterlimit:10;stroke-width:2px;}.cls-3{opacity:.25;}</style></defs><g class="cls-3"><g><line class="cls-2" x1="20" x2="20" y2="440"/><line class="cls-2" x1="10" y1="-10" x2="10" y2="430"/><line class="cls-2" x1="40" y1="-20" x2="40" y2="420"/><line class="cls-2" x1="60" x2="60" y2="440"/><line class="cls-2" x1="80" y1="-20" x2="80" y2="420"/><line class="cls-2" x1="100" x2="100" y2="440"/><line class="cls-2" x1="120" y1="-20" x2="120" y2="420"/><line class="cls-2" x1="140" x2="140" y2="440"/><line class="cls-2" x1="160" y1="-20" x2="160" y2="420"/><line class="cls-2" x1="180" x2="180" y2="440"/><line class="cls-2" x1="200" y1="-20" x2="200" y2="420"/><line class="cls-2" x1="220" x2="220" y2="440"/><line class="cls-2" x1="240" y1="-20" x2="240" y2="420"/><line class="cls-2" x1="260" x2="260" y2="440"/><line class="cls-2" x1="280" y1="-20" x2="280" y2="420"/><line class="cls-2" x1="300" x2="300" y2="440"/><line class="cls-2" x1="320" y1="-20" x2="320" y2="420"/><line class="cls-2" x1="340" x2="340" y2="440"/><line class="cls-2" x1="360" y1="-20" x2="360" y2="420"/><line class="cls-2" x1="380" x2="380" y2="440"/><line class="cls-2" x1="400" y1="-20" x2="400" y2="420"/><line class="cls-2" x1="420" x2="420" y2="440"/><line class="cls-2" x1="440" y1="-20" x2="440" y2="420"/><line class="cls-2" x1="460" x2="460" y2="440"/><line class="cls-2" x1="480" y1="-20" x2="480" y2="420"/><line class="cls-2" x1="500" x2="500" y2="440"/><line class="cls-2" x1="520" y1="-20" x2="520" y2="420"/><line class="cls-2" x1="540" x2="540" y2="440"/><line class="cls-2" x1="560" y1="-20" x2="560" y2="420"/><line class="cls-2" x1="580" x2="580" y2="440"/><line class="cls-2" x1="600" y1="-20" x2="600" y2="420"/><line class="cls-2" x1="620" x2="620" y2="440"/><line class="cls-2" x1="640" y1="-20" x2="640" y2="420"/><line class="cls-2" x1="660" x2="660" y2="440"/><line class="cls-2" x1="680" y1="-20" x2="680" y2="420"/><line class="cls-2" x1="700" x2="700" y2="440"/><line class="cls-2" x1="720" y1="-20" x2="720" y2="420"/><line class="cls-2" x1="740" x2="740" y2="440"/><line class="cls-2" x1="760" y1="-20" x2="760" y2="420"/><line class="cls-2" x1="780" x2="780" y2="440"/><line class="cls-2" x1="800" y1="-20" x2="800" y2="420"/><line class="cls-2" x1="820" x2="820" y2="440"/><line class="cls-2" x1="840" y1="-20" x2="840" y2="420"/><line class="cls-2" x1="860" x2="860" y2="440"/><line class="cls-2" x1="880" y1="-20" x2="880" y2="420"/><line class="cls-2" x1="900" x2="900" y2="440"/><line class="cls-2" x1="920" y1="-20" x2="920" y2="420"/><line class="cls-2" x1="940" x2="940" y2="440"/><line class="cls-2" x1="960" y1="-20" x2="960" y2="420"/><line class="cls-2" x1="980" x2="980" y2="440"/><line class="cls-2" x1="1000" y1="-20" x2="1000" y2="420"/><line class="cls-2" x1="1020" x2="1020" y2="440"/><line class="cls-2" x1="1040" y1="-20" x2="1040" y2="420"/><line class="cls-2" x1="1060" x2="1060" y2="440"/><line class="cls-2" x1="1080" y1="-20" x2="1080" y2="420"/></g><g><line class="cls-2" x1="30" x2="30" y2="440"/><line class="cls-2" x1="50" y1="-20" x2="50" y2="420"/><line class="cls-2" x1="70" x2="70" y2="440"/><line class="cls-2" x1="90" y1="-20" x2="90" y2="420"/><line class="cls-2" x1="110" x2="110" y2="440"/><line class="cls-2" x1="130" y1="-20" x2="130" y2="420"/><line class="cls-2" x1="150" x2="150" y2="440"/><line class="cls-2" x1="170" y1="-20" x2="170" y2="420"/><line class="cls-2" x1="190" x2="190" y2="440"/><line class="cls-2" x1="210" y1="-20" x2="210" y2="420"/><line class="cls-2" x1="230" x2="230" y2="440"/><line class="cls-2" x1="250" y1="-20" x2="250" y2="420"/><line class="cls-2" x1="270" x2="270" y2="440"/><line class="cls-2" x1="290" y1="-20" x2="290" y2="420"/><line class="cls-2" x1="310" x2="310" y2="440"/><line class="cls-2" x1="330" y1="-20" x2="330" y2="420"/><line class="cls-2" x1="350" x2="350" y2="440"/><line class="cls-2" x1="370" y1="-20" x2="370" y2="420"/><line class="cls-2" x1="390" x2="390" y2="440"/><line class="cls-2" x1="410" y1="-20" x2="410" y2="420"/><line class="cls-2" x1="430" x2="430" y2="440"/><line class="cls-2" x1="450" y1="-20" x2="450" y2="420"/><line class="cls-2" x1="470" x2="470" y2="440"/><line class="cls-2" x1="490" y1="-20" x2="490" y2="420"/><line class="cls-2" x1="510" x2="510" y2="440"/><line class="cls-2" x1="530" y1="-20" x2="530" y2="420"/><line class="cls-2" x1="550" x2="550" y2="440"/><line class="cls-2" x1="570" y1="-20" x2="570" y2="420"/><line class="cls-2" x1="590" x2="590" y2="440"/><line class="cls-2" x1="610" y1="-20" x2="610" y2="420"/><line class="cls-2" x1="630" x2="630" y2="440"/><line class="cls-2" x1="650" y1="-20" x2="650" y2="420"/><line class="cls-2" x1="670" x2="670" y2="440"/><line class="cls-2" x1="690" y1="-20" x2="690" y2="420"/><line class="cls-2" x1="710" x2="710" y2="440"/><line class="cls-2" x1="730" y1="-20" x2="730" y2="420"/><line class="cls-2" x1="750" x2="750" y2="440"/><line class="cls-2" x1="770" y1="-20" x2="770" y2="420"/><line class="cls-2" x1="790" x2="790" y2="440"/><line class="cls-2" x1="810" y1="-20" x2="810" y2="420"/><line class="cls-2" x1="830" x2="830" y2="440"/><line class="cls-2" x1="850" y1="-20" x2="850" y2="420"/><line class="cls-2" x1="870" x2="870" y2="440"/><line class="cls-2" x1="890" y1="-20" x2="890" y2="420"/><line class="cls-2" x1="910" x2="910" y2="440"/><line class="cls-2" x1="930" y1="-20" x2="930" y2="420"/><line class="cls-2" x1="950" x2="950" y2="440"/><line class="cls-2" x1="970" y1="-20" x2="970" y2="420"/><line class="cls-2" x1="990" x2="990" y2="440"/><line class="cls-2" x1="1010" y1="-20" x2="1010" y2="420"/><line class="cls-2" x1="1030" x2="1030" y2="440"/><line class="cls-2" x1="1050" y1="-20" x2="1050" y2="420"/><line class="cls-2" x1="1070" x2="1070" y2="440"/><line class="cls-2" x1="1090" y1="-20" x2="1090" y2="420"/></g><g><line class="cls-2" x1="-10" y1="20" x2="1100" y2="20"/><line class="cls-2" x1="-10" y1="10" x2="1100" y2="10"/><line class="cls-2" x1="0" y1="40" x2="1110" y2="40"/><line class="cls-2" x1="-10" y1="60" x2="1100" y2="60"/><line class="cls-2" x1="0" y1="80" x2="1110" y2="80"/><line class="cls-2" x1="-10" y1="100" x2="1100" y2="100"/><line class="cls-2" x1="0" y1="120" x2="1110" y2="120"/><line class="cls-2" x1="-10" y1="140" x2="1100" y2="140"/><line class="cls-2" x1="0" y1="160" x2="1110" y2="160"/><line class="cls-2" x1="-10" y1="180" x2="1100" y2="180"/><line class="cls-2" x1="0" y1="200" x2="1110" y2="200"/><line class="cls-2" x1="-10" y1="220" x2="1100" y2="220"/><line class="cls-2" x1="0" y1="240" x2="1110" y2="240"/><line class="cls-2" x1="-10" y1="260" x2="1100" y2="260"/><line class="cls-2" x1="0" y1="280" x2="1110" y2="280"/><line class="cls-2" x1="-10" y1="300" x2="1100" y2="300"/><line class="cls-2" x1="0" y1="320" x2="1110" y2="320"/><line class="cls-2" x1="-10" y1="340" x2="1100" y2="340"/><line class="cls-2" x1="0" y1="360" x2="1110" y2="360"/><line class="cls-2" x1="-10" y1="380" x2="1100" y2="380"/><line class="cls-2" x1="0" y1="400" x2="1110" y2="400"/></g><g><line class="cls-2" x1="-10" y1="30" x2="1100" y2="30"/><line class="cls-2" x1="0" y1="50" x2="1110" y2="50"/><line class="cls-2" x1="-10" y1="70" x2="1100" y2="70"/><line class="cls-2" x1="0" y1="90" x2="1110" y2="90"/><line class="cls-2" x1="-10" y1="110" x2="1100" y2="110"/><line class="cls-2" x1="0" y1="130" x2="1110" y2="130"/><line class="cls-2" x1="-10" y1="150" x2="1100" y2="150"/><line class="cls-2" x1="0" y1="170" x2="1110" y2="170"/><line class="cls-2" x1="-10" y1="190" x2="1100" y2="190"/><line class="cls-2" x1="0" y1="210" x2="1110" y2="210"/><line class="cls-2" x1="-10" y1="230" x2="1100" y2="230"/><line class="cls-2" x1="0" y1="250" x2="1110" y2="250"/><line class="cls-2" x1="-10" y1="270" x2="1100" y2="270"/><line class="cls-2" x1="0" y1="290" x2="1110" y2="290"/><line class="cls-2" x1="-10" y1="310" x2="1100" y2="310"/><line class="cls-2" x1="0" y1="330" x2="1110" y2="330"/><line class="cls-2" x1="-10" y1="350" x2="1100" y2="350"/><line class="cls-2" x1="0" y1="370" x2="1110" y2="370"/><line class="cls-2" x1="-10" y1="390" x2="1100" y2="390"/><line class="cls-2" x1="0" y1="410" x2="1110" y2="410"/></g></g><g><path class="cls-1" d="m850,237.07l22.93,22.93-22.93,22.93-22.93-22.93,22.93-22.93m0-7.07l-30,30,30,30,30-30-30-30h0Z"/><path class="cls-1" d="m970,237.07l22.93,22.93-22.93,22.93-22.93-22.93,22.93-22.93m0-7.07l-30,30,30,30,30-30-30-30h0Z"/><path class="cls-1" d="m845,181.79v73.21h-20v-53.88l20-19.33m5-11.79l-30,29v61h30v-90h0Z"/><path class="cls-1" d="m880,147.07l22.93,22.93-22.93,22.93-22.93-22.93,22.93-22.93m0-7.07l-30,30,30,30,30-30-30-30h0Z"/><path class="cls-1" d="m880,187.07l22.93,22.93-22.93,22.93-22.93-22.93,22.93-22.93m0-7.07l-30,30,30,30,30-30-30-30h0Z"/><path class="cls-1" d="m595,112.07v202.93h-20v-182.93l20-20m5-12.07l-30,30v190h30V100h0Z"/><path class="cls-1" d="m125,175v80h-20v-80h20m5-5h-30v90h30v-90h0Z"/><path class="cls-1" d="m445,175v80h-20v-80h20m5-5h-30v90h30v-90h0Z"/><path class="cls-1" d="m505,175v80h-20v-80h20m5-5h-30v90h30v-90h0Z"/><path class="cls-1" d="m385,175v80h-20v-80h20m5-5h-30v90h30v-90h0Z"/><path class="cls-1" d="m325,182.07v72.93h-20v-52.93l20-20m5-12.07l-30,30v60h30v-90h0Z"/><path class="cls-1" d="m225,215v40h-20v-40h20m5-5h-30v50h30v-50h0Z"/><path class="cls-1" d="m285,175v112.93l-20,20v-132.93h20m5-5h-30v150l30-30v-120h0Z"/><path class="cls-1" d="m665,192.07v62.93h-20v-42.93l20-20m5-12.07l-30,30v50h30v-80h0Z"/><path class="cls-1" d="m725,105v150h-20V105h20m5-5h-30v160h30V100h0Z"/><path class="cls-1" d="m785,105v150h-20V105h20m5-5h-30v160h30V100h0Z"/><path class="cls-1" d="m630,77.07l22.93,22.93-22.93,22.93-22.93-22.93,22.93-22.93m0-7.07l-30,30,30,30,30-30-30-30h0Z"/><path class="cls-1" d="m570,297.07l22.93,22.93-22.93,22.93-22.93-22.93,22.93-22.93m0-7.07l-30,30,30,30,30-30-30-30h0Z"/><path class="cls-1" d="m630,147.07l22.93,22.93-22.93,22.93-22.93-22.93,22.93-22.93m0-7.07l-30,30,30,30,30-30-30-30h0Z"/><path class="cls-1" d="m670,237.07l22.93,22.93-22.93,22.93-22.93-22.93,22.93-22.93m0-7.07l-30,30,30,30,30-30-30-30h0Z"/><path class="cls-1" d="m700,77.07l22.93,22.93-22.93,22.93-22.93-22.93,22.93-22.93m0-7.07l-30,30,30,30,30-30-30-30h0Z"/><path class="cls-1" d="m730,237.07l22.93,22.93-22.93,22.93-22.93-22.93,22.93-22.93m0-7.07l-30,30,30,30,30-30-30-30h0Z"/><path class="cls-1" d="m760,77.07l22.93,22.93-22.93,22.93-22.93-22.93,22.93-22.93m0-7.07l-30,30,30,30,30-30-30-30h0Z"/><path class="cls-1" d="m790,237.07l22.93,22.93-22.93,22.93-22.93-22.93,22.93-22.93m0-7.07l-30,30,30,30,30-30-30-30h0Z"/><path class="cls-1" d="m965,175v80h-20v-80h20m5-5h-30v90h30v-90h0Z"/><path class="cls-1" d="m940,147.07l22.93,22.93-22.93,22.93-22.93-22.93,22.93-22.93m0-7.07l-30,30,30,30,30-30-30-30h0Z"/><path class="cls-1" d="m1000,147.07l22.93,22.93-22.93,22.93-22.93-22.93,22.93-22.93m0-7.07l-30,30,30,30,30-30-30-30h0Z"/><path class="cls-1" d="m100,147.07l22.93,22.93-22.93,22.93-22.93-22.93,22.93-22.93m0-7.07l-30,30,30,30,30-30-30-30h0Z"/><path class="cls-1" d="m130,237.07l22.93,22.93-22.93,22.93-22.93-22.93,22.93-22.93m0-7.07l-30,30,30,30,30-30-30-30h0Z"/><path class="cls-1" d="m160,147.07l22.93,22.93-22.93,22.93-22.93-22.93,22.93-22.93m0-7.07l-30,30,30,30,30-30-30-30h0Z"/><path class="cls-1" d="m420,147.07l22.93,22.93-22.93,22.93-22.93-22.93,22.93-22.93m0-7.07l-30,30,30,30,30-30-30-30h0Z"/><path class="cls-1" d="m450,237.07l22.93,22.93-22.93,22.93-22.93-22.93,22.93-22.93m0-7.07l-30,30,30,30,30-30-30-30h0Z"/><path class="cls-1" d="m480,147.07l22.93,22.93-22.93,22.93-22.93-22.93,22.93-22.93m0-7.07l-30,30,30,30,30-30-30-30h0Z"/><path class="cls-1" d="m510,237.07l22.93,22.93-22.93,22.93-22.93-22.93,22.93-22.93m0-7.07l-30,30,30,30,30-30-30-30h0Z"/><path class="cls-1" d="m360,147.07l22.93,22.93-22.93,22.93-22.93-22.93,22.93-22.93m0-7.07l-30,30,30,30,30-30-30-30h0Z"/><path class="cls-1" d="m390,237.07l22.93,22.93-22.93,22.93-22.93-22.93,22.93-22.93m0-7.07l-30,30,30,30,30-30-30-30h0Z"/><path class="cls-1" d="m330,237.07l22.93,22.93-22.93,22.93-22.93-22.93,22.93-22.93m0-7.07l-30,30,30,30,30-30-30-30h0Z"/><path class="cls-1" d="m200,187.07l22.93,22.93-22.93,22.93-22.93-22.93,22.93-22.93m0-7.07l-30,30,30,30,30-30-30-30h0Z"/><path class="cls-1" d="m230,237.07l22.93,22.93-22.93,22.93-22.93-22.93,22.93-22.93m0-7.07l-30,30,30,30,30-30-30-30h0Z"/><path class="cls-1" d="m260,147.07l22.93,22.93-22.93,22.93-22.93-22.93,22.93-22.93m0-7.07l-30,30,30,30,30-30-30-30h0Z"/><path class="cls-1" d="m230,297.07l22.93,22.93-22.93,22.93-22.93-22.93,22.93-22.93m0-7.07l-30,30,30,30,30-30-30-30h0Z"/></g></svg>