<?xml version="1.0" encoding="UTF-8"?><svg id="Layer_1" xmlns="http://www.w3.org/2000/svg" viewBox="0 0 1120 440"><defs><style>#Layer_1{background:white;}.cls-1{fill:none;stroke:#231f20;stroke-dasharray:0 0 9 12;stroke-miterlimit:10;stroke-width:2px;}.cls-2{fill:#231f20;}.cls-3{opacity:.5;}</style></defs><g class="cls-3"><polygon class="cls-2" points="860 240 830 270 830 209 860 180 860 240"/><rect class="cls-2" x="868.79" y="158.79" width="42.43" height="42.43" transform="translate(387.95 -576.6) rotate(45)"/><rect class="cls-2" x="868.79" y="198.79" width="42.43" height="42.43" transform="translate(105.11 693.76) rotate(-45)"/><rect class="cls-2" x="838.79" y="248.79" width="42.43" height="42.43" transform="translate(60.97 687.19) rotate(-45)"/><polygon class="cls-2" points="610 330 580 360 580 140 610 110 610 330"/><polygon class="cls-2" points="140 240 110 270 110 210 140 180 140 240"/><polygon class="cls-2" points="460 240 430 270 430 210 460 180 460 240"/><polygon class="cls-2" points="520 240 490 270 490 210 520 180 520 240"/><polygon class="cls-2" points="400 240 370 270 370 210 400 180 400 240"/><polygon class="cls-2" points="340 240 310 270 310 209 340 180 340 240"/><polygon class="cls-2" points="240 240 210 270 210 250 240 220 240 240"/><polygon class="cls-2" points="300 300 270 330 270 210 300 180 300 300"/><polygon class="cls-2" points="680 240 650 270 650 220 680 190 680 240"/><polygon class="cls-2" points="740 240 710 270 710 140 740 110 740 240"/><polygon class="cls-2" points="800 240 770 270 770 140 800 110 800 240"/><rect class="cls-2" x="618.79" y="88.79" width="42.43" height="42.43" transform="translate(265.23 -420.33) rotate(45)"/><rect class="cls-2" x="558.79" y="308.79" width="42.43" height="42.43" transform="translate(403.22 -313.47) rotate(45)"/><rect class="cls-2" x="618.79" y="158.79" width="42.43" height="42.43" transform="translate(314.73 -399.83) rotate(45)"/><rect class="cls-2" x="88.79" y="158.79" width="42.43" height="42.43" transform="translate(159.5 -25.06) rotate(45)"/><rect class="cls-2" x="118.79" y="248.79" width="42.43" height="42.43" transform="translate(-149.91 178.08) rotate(-45)"/><rect class="cls-2" x="148.79" y="158.79" width="42.43" height="42.43" transform="translate(177.07 -67.49) rotate(45)"/><rect class="cls-2" x="408.79" y="158.79" width="42.43" height="42.43" transform="translate(253.22 -251.34) rotate(45)"/><rect class="cls-2" x="438.79" y="248.79" width="42.43" height="42.43" transform="translate(-56.19 404.35) rotate(-45)"/><rect class="cls-2" x="468.79" y="158.79" width="42.43" height="42.43" transform="translate(270.8 -293.76) rotate(45)"/><rect class="cls-2" x="498.79" y="248.79" width="42.43" height="42.43" transform="translate(-38.61 446.78) rotate(-45)"/><rect class="cls-2" x="348.79" y="158.79" width="42.43" height="42.43" transform="translate(235.65 -208.91) rotate(45)"/><rect class="cls-2" x="378.79" y="248.79" width="42.43" height="42.43" transform="translate(-73.76 361.92) rotate(-45)"/><rect class="cls-2" x="318.79" y="248.79" width="42.43" height="42.43" transform="translate(-91.34 319.5) rotate(-45)"/><rect class="cls-2" x="188.79" y="198.79" width="42.43" height="42.43" transform="translate(-94.06 212.93) rotate(-45)"/><rect class="cls-2" x="218.79" y="248.79" width="42.43" height="42.43" transform="translate(-120.62 248.79) rotate(-45)"/><rect class="cls-2" x="248.79" y="158.79" width="42.43" height="42.43" transform="translate(206.36 -138.2) rotate(45)"/><rect class="cls-2" x="218.79" y="308.79" width="42.43" height="42.43" transform="translate(303.64 -73.05) rotate(45)"/><rect class="cls-2" x="658.79" y="248.79" width="42.43" height="42.43" transform="translate(8.25 559.91) rotate(-45)"/><rect class="cls-2" x="688.79" y="88.79" width="42.43" height="42.43" transform="translate(285.74 -469.83) rotate(45)"/><rect class="cls-2" x="718.79" y="248.79" width="42.43" height="42.43" transform="translate(25.82 602.34) rotate(-45)"/><rect class="cls-2" x="748.79" y="88.79" width="42.43" height="42.43" transform="translate(303.31 -512.25) rotate(45)"/><rect class="cls-2" x="778.79" y="248.79" width="42.43" height="42.43" transform="translate(43.4 644.77) rotate(-45)"/><polygon class="cls-2" points="980 240 950 270 950 210 980 180 980 240"/><rect class="cls-2" x="928.79" y="158.79" width="42.43" height="42.43" transform="translate(405.53 -619.03) rotate(45)"/><rect class="cls-2" x="988.79" y="158.79" width="42.43" height="42.43" transform="translate(423.1 -661.46) rotate(45)"/><rect class="cls-2" x="958.79" y="248.79" width="42.43" height="42.43" transform="translate(96.12 772.05) rotate(-45)"/></g><g><line class="cls-1" x1="688.33" y1="468.33" x2="217.42" y2="-2.58"/><line class="cls-1" x1="251.67" y1="-28.33" x2="722.58" y2="442.58"/></g><g><line class="cls-1" x1="428.33" y1="468.33" x2="-42.58" y2="-2.58"/><line class="cls-1" x1="-8.33" y1="-28.33" x2="462.58" y2="442.58"/></g><g><line class="cls-1" x1="668.33" y1="-28.33" x2="197.42" y2="442.58"/><line class="cls-1" x1="231.67" y1="468.33" x2="702.58" y2="-2.58"/></g><g><line class="cls-1" x1="1128.33" y1="-28.33" x2="657.42" y2="442.58"/><line class="cls-1" x1="691.67" y1="468.33" x2="1162.58" y2="-2.58"/></g><g><line class="cls-1" x1="968.33" y1="468.33" x2="497.42" y2="-2.58"/><line class="cls-1" x1="531.67" y1="-28.33" x2="1002.58" y2="442.58"/></g></svg>