<?xml version="1.0" encoding="utf-8"?>
<!-- Generator: Adobe Illustrator 27.3.1, SVG Export Plug-In . SVG Version: 6.00 Build 0)  -->
<svg version="1.1" id="Layer_1" xmlns="http://www.w3.org/2000/svg" xmlns:xlink="http://www.w3.org/1999/xlink" x="0px" y="0px"
	 viewBox="0 0 1120 440" style="enable-background:new 0 0 1120 440;" xml:space="preserve">
<style type="text/css">
	#Layer_1{background:white;}
	.st0{opacity:0.5;}
	.st1{fill:#231F20;}
	.st2{fill:none;stroke:#231F20;stroke-width:2;stroke-miterlimit:10;}
	.st3{fill:none;stroke:#231F20;stroke-width:2;stroke-miterlimit:10;stroke-dasharray:0,0,8.5,11.33;}
	.st4{fill:none;stroke:#231F20;stroke-width:2;stroke-miterlimit:10;stroke-dasharray:0,0,9.06,12.08;}
</style>
<g class="st0">
	<polygon class="st1" points="860,240 830,270 830,209 860,180 	"/>
	
		<rect x="868.8" y="158.8" transform="matrix(0.7071 -0.7071 0.7071 0.7071 133.3865 682.0461)" class="st1" width="42.4" height="42.4"/>
	
		<rect x="868.8" y="198.8" transform="matrix(0.7071 -0.7071 0.7071 0.7071 105.1142 693.765)" class="st1" width="42.4" height="42.4"/>
	
		<rect x="838.8" y="248.8" transform="matrix(0.7071 -0.7071 0.7071 0.7071 60.9737 687.1976)" class="st1" width="42.4" height="42.4"/>
	<polygon class="st1" points="610,330 580,360 580,140 610,110 	"/>
	<polygon class="st1" points="140,240 110,270 110,210 140,180 	"/>
	<polygon class="st1" points="460,240 430,270 430,210 460,180 	"/>
	<polygon class="st1" points="520,240 490,270 490,210 520,180 	"/>
	<polygon class="st1" points="400,240 370,270 370,210 400,180 	"/>
	<polygon class="st1" points="340,240 310,270 310,209 340,180 	"/>
	<polygon class="st1" points="240,240 210,270 210,250 240,220 	"/>
	<polygon class="st1" points="300,300 270,330 270,210 300,180 	"/>
	<polygon class="st1" points="680,240 650,270 650,220 680,190 	"/>
	<polygon class="st1" points="740,240 710,270 710,140 740,110 	"/>
	<polygon class="st1" points="800,240 770,270 770,140 800,110 	"/>
	
		<rect x="618.8" y="88.8" transform="matrix(0.7071 -0.7071 0.7071 0.7071 109.6639 484.7663)" class="st1" width="42.4" height="42.4"/>
	
		<rect x="558.8" y="308.8" transform="matrix(0.7071 -0.7071 0.7071 0.7071 -63.4711 506.7756)" class="st1" width="42.4" height="42.4"/>
	
		<rect x="618.8" y="158.8" transform="matrix(0.7071 -0.7071 0.7071 0.7071 60.1689 505.2698)" class="st1" width="42.4" height="42.4"/>
	
		<rect x="88.8" y="158.8" transform="matrix(0.7071 -0.7071 0.7071 0.7071 -95.0659 130.5067)" class="st1" width="42.4" height="42.4"/>
	
		<rect x="118.8" y="248.8" transform="matrix(0.7071 -0.7071 0.7071 0.7071 -149.9133 178.0849)" class="st1" width="42.4" height="42.4"/>
	
		<rect x="148.8" y="158.8" transform="matrix(0.7071 -0.7071 0.7071 0.7071 -77.4908 172.9295)" class="st1" width="42.4" height="42.4"/>
	
		<rect x="408.8" y="158.8" transform="matrix(0.7071 -0.7071 0.7071 0.7071 -1.3377 356.775)" class="st1" width="42.4" height="42.4"/>
	
		<rect x="438.8" y="248.8" transform="matrix(0.7071 -0.7071 0.7071 0.7071 -56.1863 404.3538)" class="st1" width="42.4" height="42.4"/>
	
		<rect x="468.8" y="158.8" transform="matrix(0.7071 -0.7071 0.7071 0.7071 16.2333 399.2078)" class="st1" width="42.4" height="42.4"/>
	
		<rect x="498.8" y="248.8" transform="matrix(0.7071 -0.7071 0.7071 0.7071 -38.6133 446.7857)" class="st1" width="42.4" height="42.4"/>
	
		<rect x="348.8" y="158.8" transform="matrix(0.7071 -0.7071 0.7071 0.7071 -18.9127 314.3522)" class="st1" width="42.4" height="42.4"/>
	
		<rect x="378.8" y="248.8" transform="matrix(0.7071 -0.7071 0.7071 0.7071 -73.7563 361.9288)" class="st1" width="42.4" height="42.4"/>
	
		<rect x="318.8" y="248.8" transform="matrix(0.7071 -0.7071 0.7071 0.7071 -91.3363 319.4998)" class="st1" width="42.4" height="42.4"/>
	
		<rect x="188.8" y="198.8" transform="matrix(0.7071 -0.7071 0.7071 0.7071 -94.0558 212.9314)" class="st1" width="42.4" height="42.4"/>
	
		<rect x="218.8" y="248.8" transform="matrix(0.7071 -0.7071 0.7071 0.7071 -120.6233 248.7959)" class="st1" width="42.4" height="42.4"/>
	
		<rect x="248.8" y="158.8" transform="matrix(0.7071 -0.7071 0.7071 0.7071 -48.2018 243.6408)" class="st1" width="42.4" height="42.4"/>
	
		<rect x="218.8" y="308.8" transform="matrix(0.7071 -0.7071 0.7071 0.7071 -163.0564 266.363)" class="st1" width="42.4" height="42.4"/>
	
		<rect x="658.8" y="248.8" transform="matrix(0.7071 -0.7071 0.7071 0.7071 8.2537 559.9186)" class="st1" width="42.4" height="42.4"/>
	
		<rect x="688.8" y="88.8" transform="matrix(0.7071 -0.7071 0.7071 0.7071 130.1703 534.2682)" class="st1" width="42.4" height="42.4"/>
	
		<rect x="718.8" y="248.8" transform="matrix(0.7071 -0.7071 0.7071 0.7071 25.8237 602.3436)" class="st1" width="42.4" height="42.4"/>
	
		<rect x="748.8" y="88.8" transform="matrix(0.7071 -0.7071 0.7071 0.7071 147.7384 576.694)" class="st1" width="42.4" height="42.4"/>
	
		<rect x="778.8" y="248.8" transform="matrix(0.7071 -0.7071 0.7071 0.7071 43.3966 644.7756)" class="st1" width="42.4" height="42.4"/>
	<polygon class="st1" points="980,240 950,270 950,210 980,180 	"/>
	
		<rect x="928.8" y="158.8" transform="matrix(0.7071 -0.7071 0.7071 0.7071 150.9646 724.476)" class="st1" width="42.4" height="42.4"/>
	
		<rect x="988.8" y="158.8" transform="matrix(0.7071 -0.7071 0.7071 0.7071 168.5396 766.8989)" class="st1" width="42.4" height="42.4"/>
	
		<rect x="958.8" y="248.8" transform="matrix(0.7071 -0.7071 0.7071 0.7071 96.1166 772.0545)" class="st1" width="42.4" height="42.4"/>
</g>
<g>
	<polyline class="st2" points="4.5,240 -5,240 -5,244.5 	"/>
	<line class="st3" x1="-5" y1="255.8" x2="-5" y2="289.8"/>
	<polyline class="st2" points="-5,295.5 -5,300 4.5,300 	"/>
	<line class="st4" x1="16.6" y1="300" x2="1109.5" y2="300"/>
	<polyline class="st2" points="1115.5,300 1125,300 1125,295.5 	"/>
	<line class="st3" x1="1125" y1="284.2" x2="1125" y2="250.2"/>
	<polyline class="st2" points="1125,244.5 1125,240 1115.5,240 	"/>
	<line class="st4" x1="1103.4" y1="240" x2="10.5" y2="240"/>
</g>
<g>
	<polyline class="st2" points="4.5,150 -5,150 -5,154.5 	"/>
	<line class="st3" x1="-5" y1="165.8" x2="-5" y2="199.8"/>
	<polyline class="st2" points="-5,205.5 -5,210 4.5,210 	"/>
	<line class="st4" x1="16.6" y1="210" x2="1109.5" y2="210"/>
	<polyline class="st2" points="1115.5,210 1125,210 1125,205.5 	"/>
	<line class="st3" x1="1125" y1="194.2" x2="1125" y2="160.2"/>
	<polyline class="st2" points="1125,154.5 1125,150 1115.5,150 	"/>
	<line class="st4" x1="1103.4" y1="150" x2="10.5" y2="150"/>
</g>
<g>
	<line class="st2" x1="1125" y1="360" x2="1115.5" y2="360"/>
	<line class="st4" x1="1103.4" y1="360" x2="10.5" y2="360"/>
	<line class="st2" x1="4.5" y1="360" x2="-5" y2="360"/>
</g>
<g>
	<line class="st2" x1="-5" y1="80" x2="4.5" y2="80"/>
	<line class="st4" x1="16.6" y1="80" x2="1109.5" y2="80"/>
	<line class="st2" x1="1115.5" y1="80" x2="1125" y2="80"/>
</g>
</svg>
