<?xml version="1.0" encoding="UTF-8"?><svg id="Layer_1" xmlns="http://www.w3.org/2000/svg" viewBox="0 0 1100 420"><defs><style>#Layer_1{background:white;}.path,polygon{fill:black;}</style></defs><g><rect class="cls-1" x="685.6" y="287.11" width="42.17" height="42.17" transform="translate(-10.94 589.97) rotate(-45)"/><rect class="cls-1" x="668.13" y="108.19" width="42.17" height="42.17" transform="translate(110.45 525.21) rotate(-45)"/><rect class="cls-1" x="668.13" y="167.83" width="42.17" height="42.17" transform="translate(68.28 542.68) rotate(-45)"/><rect class="cls-1" x="676.87" y="188.91" width="42.17" height="119.28"/></g><rect class="cls-1" x="330.06" y="167.83" width="42.17" height="42.17" transform="translate(-30.73 303.63) rotate(-45)"/><rect class="cls-1" x="347.53" y="287.11" width="42.17" height="42.17" transform="translate(-109.96 350.92) rotate(-45)"/><rect class="cls-1" x="338.79" y="188.91" width="42.17" height="119.28"/><rect class="cls-1" x="287.89" y="287.11" width="42.17" height="42.17" transform="translate(-127.43 308.75) rotate(-45)"/><g><rect class="cls-1" x="727.77" y="18.73" width="42.17" height="42.17" transform="translate(191.18 541.18) rotate(-45)"/><rect class="cls-1" x="745.24" y="287.11" width="42.17" height="42.17" transform="translate(6.53 632.14) rotate(-45)"/><rect class="cls-1" x="736.5" y="39.82" width="42.17" height="268.37"/></g><g><rect class="cls-1" x="787.41" y="18.73" width="42.17" height="42.17" transform="translate(208.65 583.35) rotate(-45)"/><rect class="cls-1" x="804.88" y="287.11" width="42.17" height="42.17" transform="translate(23.99 674.31) rotate(-45)"/><rect class="cls-1" x="796.14" y="39.82" width="42.17" height="268.37"/></g><polygon points="279.16 231.09 279.16 308.19 321.33 308.19 321.33 188.91 279.16 231.09"/><g><rect class="cls-1" x="449.34" y="167.83" width="42.17" height="42.17" transform="translate(4.2 387.97) rotate(-45)"/><rect class="cls-1" x="389.7" y="167.83" width="42.17" height="42.17" transform="translate(-13.27 345.8) rotate(-45)"/><rect class="cls-1" x="466.8" y="287.11" width="42.17" height="42.17" transform="translate(-75.02 435.26) rotate(-45)"/><rect class="cls-1" x="458.07" y="188.91" width="42.17" height="119.28"/><rect class="cls-1" x="407.17" y="287.11" width="42.17" height="42.17" transform="translate(-92.49 393.09) rotate(-45)"/><rect x="398.43" y="188.91" width="42.17" height="119.28"/></g><g><rect class="cls-1" x="1025.96" y="167.83" width="42.17" height="42.17" transform="translate(173.09 795.71) rotate(-45)"/><rect class="cls-1" x="966.32" y="167.83" width="42.17" height="42.17" transform="translate(155.62 753.53) rotate(-45)"/><rect class="cls-1" x="983.79" y="287.11" width="42.17" height="42.17" transform="translate(76.4 800.82) rotate(-45)"/><rect x="975.06" y="188.91" width="42.17" height="119.28"/></g><g><rect class="cls-1" x="91.51" y="167.83" width="42.17" height="42.17" transform="translate(-100.61 134.95) rotate(-45)"/><rect class="cls-1" x="31.87" y="167.83" width="42.17" height="42.17" transform="translate(-118.07 92.78) rotate(-45)"/><rect class="cls-1" x="49.34" y="287.11" width="42.17" height="42.17" transform="translate(-197.3 140.06) rotate(-45)"/><rect x="40.6" y="188.91" width="42.17" height="119.28"/></g><rect class="cls-1" x="864.51" y="287.11" width="42.17" height="42.17" transform="translate(41.46 716.48) rotate(-45)"/><rect class="cls-1" x="864.51" y="239.82" width="42.17" height="42.17" transform="translate(74.9 702.63) rotate(-45)"/><polygon points="855.78 231.09 855.78 308.19 897.95 308.19 897.95 188.91 855.78 231.09"/><g><polygon points="261.69 338.01 261.69 206.38 219.52 206.38 219.52 380.18 261.69 338.01"/><rect class="cls-1" x="210.78" y="167.83" width="42.17" height="42.17" transform="translate(-65.67 219.29) rotate(-45)"/><rect class="cls-1" x="151.15" y="167.83" width="42.17" height="42.17" transform="translate(-83.14 177.12) rotate(-45)"/><rect class="cls-1" x="168.61" y="359.1" width="42.17" height="42.17" transform="translate(-213.27 245.49) rotate(-45)"/><rect class="cls-1" x="219.52" y="188.91" width="42.17" height="119.28"/><rect class="cls-1" x="168.61" y="287.11" width="42.17" height="42.17" transform="translate(-162.36 224.4) rotate(-45)"/><rect x="159.88" y="188.91" width="42.17" height="119.28"/></g><rect class="cls-1" x="906.68" y="167.83" width="42.17" height="42.17" transform="translate(138.15 711.36) rotate(-45)"/><polygon points="957.59 218.73 957.59 188.91 915.42 188.91 915.42 260.9 957.59 218.73"/><g><rect class="cls-1" x="608.49" y="18.73" width="42.17" height="42.17" transform="translate(156.24 456.84) rotate(-45)"/><rect class="cls-1" x="608.49" y="167.83" width="42.17" height="42.17" transform="translate(50.82 500.51) rotate(-45)"/><polygon points="557.59 81.99 557.59 129.28 599.76 129.28 599.76 39.82 557.59 81.99"/><polygon points="599.76 367.12 599.76 129.28 557.59 129.28 557.59 409.29 599.76 367.12"/></g><rect class="cls-1" x="536.5" y="358.38" width="42.17" height="42.17" transform="translate(-105.01 505.42) rotate(-45)"/></svg>