<?xml version="1.0" encoding="UTF-8"?><svg id="Layer_1" xmlns="http://www.w3.org/2000/svg" viewBox="0 0 1100 420"><defs><style>#Layer_1{background:white;}.cls-1{fill:#231f20;}.cls-2{fill:none;stroke:#231f20;stroke-miterlimit:10;stroke-width:2px;}.cls-3{opacity:.25;}</style></defs><g><polygon class="cls-1" points="850 230 820 260 820 199 850 170 850 230"/><rect class="cls-1" x="858.79" y="148.79" width="42.43" height="42.43" transform="translate(377.95 -572.46) rotate(45)"/><rect class="cls-1" x="858.79" y="188.79" width="42.43" height="42.43" transform="translate(109.25 683.76) rotate(-45)"/><rect class="cls-1" x="828.79" y="238.79" width="42.43" height="42.43" transform="translate(65.11 677.19) rotate(-45)"/><polygon class="cls-1" points="600 320 570 350 570 130 600 100 600 320"/><polygon class="cls-1" points="130 230 100 260 100 200 130 170 130 230"/><polygon class="cls-1" points="450 230 420 260 420 200 450 170 450 230"/><polygon class="cls-1" points="510 230 480 260 480 200 510 170 510 230"/><polygon class="cls-1" points="390 230 360 260 360 200 390 170 390 230"/><polygon class="cls-1" points="330 230 300 260 300 199 330 170 330 230"/><polygon class="cls-1" points="230 230 200 260 200 240 230 210 230 230"/><polygon class="cls-1" points="290 290 260 320 260 200 290 170 290 290"/><polygon class="cls-1" points="670 230 640 260 640 210 670 180 670 230"/><polygon class="cls-1" points="730 230 700 260 700 130 730 100 730 230"/><polygon class="cls-1" points="790 230 760 260 760 130 790 100 790 230"/><rect class="cls-1" x="608.79" y="78.79" width="42.43" height="42.43" transform="translate(255.23 -416.19) rotate(45)"/><rect class="cls-1" x="548.79" y="298.79" width="42.43" height="42.43" transform="translate(393.22 -309.33) rotate(45)"/><rect class="cls-1" x="608.79" y="148.79" width="42.43" height="42.43" transform="translate(304.73 -395.69) rotate(45)"/><rect class="cls-1" x="78.79" y="148.79" width="42.43" height="42.43" transform="translate(149.5 -20.92) rotate(45)"/><rect class="cls-1" x="108.79" y="238.79" width="42.43" height="42.43" transform="translate(-145.77 168.08) rotate(-45)"/><rect class="cls-1" x="138.79" y="148.79" width="42.43" height="42.43" transform="translate(167.07 -63.35) rotate(45)"/><rect class="cls-1" x="398.79" y="148.79" width="42.43" height="42.43" transform="translate(243.22 -247.19) rotate(45)"/><rect class="cls-1" x="428.79" y="238.79" width="42.43" height="42.43" transform="translate(-52.05 394.35) rotate(-45)"/><rect class="cls-1" x="458.79" y="148.79" width="42.43" height="42.43" transform="translate(260.8 -289.62) rotate(45)"/><rect class="cls-1" x="488.79" y="238.79" width="42.43" height="42.43" transform="translate(-34.47 436.78) rotate(-45)"/><rect class="cls-1" x="338.79" y="148.79" width="42.43" height="42.43" transform="translate(225.65 -204.77) rotate(45)"/><rect class="cls-1" x="368.79" y="238.79" width="42.43" height="42.43" transform="translate(-69.62 351.92) rotate(-45)"/><rect class="cls-1" x="308.79" y="238.79" width="42.43" height="42.43" transform="translate(-87.19 309.5) rotate(-45)"/><rect class="cls-1" x="178.79" y="188.79" width="42.43" height="42.43" transform="translate(-89.91 202.93) rotate(-45)"/><rect class="cls-1" x="208.79" y="238.79" width="42.43" height="42.43" transform="translate(-116.48 238.79) rotate(-45)"/><rect class="cls-1" x="238.79" y="148.79" width="42.43" height="42.43" transform="translate(196.36 -134.06) rotate(45)"/><rect class="cls-1" x="208.79" y="298.79" width="42.43" height="42.43" transform="translate(293.64 -68.91) rotate(45)"/><rect class="cls-1" x="648.79" y="238.79" width="42.43" height="42.43" transform="translate(12.39 549.91) rotate(-45)"/><rect class="cls-1" x="678.79" y="78.79" width="42.43" height="42.43" transform="translate(275.74 -465.69) rotate(45)"/><rect class="cls-1" x="708.79" y="238.79" width="42.43" height="42.43" transform="translate(29.96 592.34) rotate(-45)"/><rect class="cls-1" x="738.79" y="78.79" width="42.43" height="42.43" transform="translate(293.31 -508.11) rotate(45)"/><rect class="cls-1" x="768.79" y="238.79" width="42.43" height="42.43" transform="translate(47.54 634.77) rotate(-45)"/><polygon class="cls-1" points="970 230 940 260 940 200 970 170 970 230"/><rect class="cls-1" x="918.79" y="148.79" width="42.43" height="42.43" transform="translate(395.53 -614.89) rotate(45)"/><rect class="cls-1" x="978.79" y="148.79" width="42.43" height="42.43" transform="translate(413.1 -657.31) rotate(45)"/><rect class="cls-1" x="948.79" y="238.79" width="42.43" height="42.43" transform="translate(100.26 762.05) rotate(-45)"/></g><g class="cls-3"><g><line class="cls-2" x1="20" x2="20" y2="440"/><line class="cls-2" x1="10" y1="-10" x2="10" y2="430"/><line class="cls-2" x1="40" y1="-20" x2="40" y2="420"/><line class="cls-2" x1="60" x2="60" y2="440"/><line class="cls-2" x1="80" y1="-20" x2="80" y2="420"/><line class="cls-2" x1="100" x2="100" y2="440"/><line class="cls-2" x1="120" y1="-20" x2="120" y2="420"/><line class="cls-2" x1="140" x2="140" y2="440"/><line class="cls-2" x1="160" y1="-20" x2="160" y2="420"/><line class="cls-2" x1="180" x2="180" y2="440"/><line class="cls-2" x1="200" y1="-20" x2="200" y2="420"/><line class="cls-2" x1="220" x2="220" y2="440"/><line class="cls-2" x1="240" y1="-20" x2="240" y2="420"/><line class="cls-2" x1="260" x2="260" y2="440"/><line class="cls-2" x1="280" y1="-20" x2="280" y2="420"/><line class="cls-2" x1="300" x2="300" y2="440"/><line class="cls-2" x1="320" y1="-20" x2="320" y2="420"/><line class="cls-2" x1="340" x2="340" y2="440"/><line class="cls-2" x1="360" y1="-20" x2="360" y2="420"/><line class="cls-2" x1="380" x2="380" y2="440"/><line class="cls-2" x1="400" y1="-20" x2="400" y2="420"/><line class="cls-2" x1="420" x2="420" y2="440"/><line class="cls-2" x1="440" y1="-20" x2="440" y2="420"/><line class="cls-2" x1="460" x2="460" y2="440"/><line class="cls-2" x1="480" y1="-20" x2="480" y2="420"/><line class="cls-2" x1="500" x2="500" y2="440"/><line class="cls-2" x1="520" y1="-20" x2="520" y2="420"/><line class="cls-2" x1="540" x2="540" y2="440"/><line class="cls-2" x1="560" y1="-20" x2="560" y2="420"/><line class="cls-2" x1="580" x2="580" y2="440"/><line class="cls-2" x1="600" y1="-20" x2="600" y2="420"/><line class="cls-2" x1="620" x2="620" y2="440"/><line class="cls-2" x1="640" y1="-20" x2="640" y2="420"/><line class="cls-2" x1="660" x2="660" y2="440"/><line class="cls-2" x1="680" y1="-20" x2="680" y2="420"/><line class="cls-2" x1="700" x2="700" y2="440"/><line class="cls-2" x1="720" y1="-20" x2="720" y2="420"/><line class="cls-2" x1="740" x2="740" y2="440"/><line class="cls-2" x1="760" y1="-20" x2="760" y2="420"/><line class="cls-2" x1="780" x2="780" y2="440"/><line class="cls-2" x1="800" y1="-20" x2="800" y2="420"/><line class="cls-2" x1="820" x2="820" y2="440"/><line class="cls-2" x1="840" y1="-20" x2="840" y2="420"/><line class="cls-2" x1="860" x2="860" y2="440"/><line class="cls-2" x1="880" y1="-20" x2="880" y2="420"/><line class="cls-2" x1="900" x2="900" y2="440"/><line class="cls-2" x1="920" y1="-20" x2="920" y2="420"/><line class="cls-2" x1="940" x2="940" y2="440"/><line class="cls-2" x1="960" y1="-20" x2="960" y2="420"/><line class="cls-2" x1="980" x2="980" y2="440"/><line class="cls-2" x1="1000" y1="-20" x2="1000" y2="420"/><line class="cls-2" x1="1020" x2="1020" y2="440"/><line class="cls-2" x1="1040" y1="-20" x2="1040" y2="420"/><line class="cls-2" x1="1060" x2="1060" y2="440"/><line class="cls-2" x1="1080" y1="-20" x2="1080" y2="420"/></g><g><line class="cls-2" x1="30" x2="30" y2="440"/><line class="cls-2" x1="50" y1="-20" x2="50" y2="420"/><line class="cls-2" x1="70" x2="70" y2="440"/><line class="cls-2" x1="90" y1="-20" x2="90" y2="420"/><line class="cls-2" x1="110" x2="110" y2="440"/><line class="cls-2" x1="130" y1="-20" x2="130" y2="420"/><line class="cls-2" x1="150" x2="150" y2="440"/><line class="cls-2" x1="170" y1="-20" x2="170" y2="420"/><line class="cls-2" x1="190" x2="190" y2="440"/><line class="cls-2" x1="210" y1="-20" x2="210" y2="420"/><line class="cls-2" x1="230" x2="230" y2="440"/><line class="cls-2" x1="250" y1="-20" x2="250" y2="420"/><line class="cls-2" x1="270" x2="270" y2="440"/><line class="cls-2" x1="290" y1="-20" x2="290" y2="420"/><line class="cls-2" x1="310" x2="310" y2="440"/><line class="cls-2" x1="330" y1="-20" x2="330" y2="420"/><line class="cls-2" x1="350" x2="350" y2="440"/><line class="cls-2" x1="370" y1="-20" x2="370" y2="420"/><line class="cls-2" x1="390" x2="390" y2="440"/><line class="cls-2" x1="410" y1="-20" x2="410" y2="420"/><line class="cls-2" x1="430" x2="430" y2="440"/><line class="cls-2" x1="450" y1="-20" x2="450" y2="420"/><line class="cls-2" x1="470" x2="470" y2="440"/><line class="cls-2" x1="490" y1="-20" x2="490" y2="420"/><line class="cls-2" x1="510" x2="510" y2="440"/><line class="cls-2" x1="530" y1="-20" x2="530" y2="420"/><line class="cls-2" x1="550" x2="550" y2="440"/><line class="cls-2" x1="570" y1="-20" x2="570" y2="420"/><line class="cls-2" x1="590" x2="590" y2="440"/><line class="cls-2" x1="610" y1="-20" x2="610" y2="420"/><line class="cls-2" x1="630" x2="630" y2="440"/><line class="cls-2" x1="650" y1="-20" x2="650" y2="420"/><line class="cls-2" x1="670" x2="670" y2="440"/><line class="cls-2" x1="690" y1="-20" x2="690" y2="420"/><line class="cls-2" x1="710" x2="710" y2="440"/><line class="cls-2" x1="730" y1="-20" x2="730" y2="420"/><line class="cls-2" x1="750" x2="750" y2="440"/><line class="cls-2" x1="770" y1="-20" x2="770" y2="420"/><line class="cls-2" x1="790" x2="790" y2="440"/><line class="cls-2" x1="810" y1="-20" x2="810" y2="420"/><line class="cls-2" x1="830" x2="830" y2="440"/><line class="cls-2" x1="850" y1="-20" x2="850" y2="420"/><line class="cls-2" x1="870" x2="870" y2="440"/><line class="cls-2" x1="890" y1="-20" x2="890" y2="420"/><line class="cls-2" x1="910" x2="910" y2="440"/><line class="cls-2" x1="930" y1="-20" x2="930" y2="420"/><line class="cls-2" x1="950" x2="950" y2="440"/><line class="cls-2" x1="970" y1="-20" x2="970" y2="420"/><line class="cls-2" x1="990" x2="990" y2="440"/><line class="cls-2" x1="1010" y1="-20" x2="1010" y2="420"/><line class="cls-2" x1="1030" x2="1030" y2="440"/><line class="cls-2" x1="1050" y1="-20" x2="1050" y2="420"/><line class="cls-2" x1="1070" x2="1070" y2="440"/><line class="cls-2" x1="1090" y1="-20" x2="1090" y2="420"/></g><g><line class="cls-2" x1="-10" y1="20" x2="1100" y2="20"/><line class="cls-2" x1="-10" y1="10" x2="1100" y2="10"/><line class="cls-2" x1="0" y1="40" x2="1110" y2="40"/><line class="cls-2" x1="-10" y1="60" x2="1100" y2="60"/><line class="cls-2" x1="0" y1="80" x2="1110" y2="80"/><line class="cls-2" x1="-10" y1="100" x2="1100" y2="100"/><line class="cls-2" x1="0" y1="120" x2="1110" y2="120"/><line class="cls-2" x1="-10" y1="140" x2="1100" y2="140"/><line class="cls-2" x1="0" y1="160" x2="1110" y2="160"/><line class="cls-2" x1="-10" y1="180" x2="1100" y2="180"/><line class="cls-2" x1="0" y1="200" x2="1110" y2="200"/><line class="cls-2" x1="-10" y1="220" x2="1100" y2="220"/><line class="cls-2" x1="0" y1="240" x2="1110" y2="240"/><line class="cls-2" x1="-10" y1="260" x2="1100" y2="260"/><line class="cls-2" x1="0" y1="280" x2="1110" y2="280"/><line class="cls-2" x1="-10" y1="300" x2="1100" y2="300"/><line class="cls-2" x1="0" y1="320" x2="1110" y2="320"/><line class="cls-2" x1="-10" y1="340" x2="1100" y2="340"/><line class="cls-2" x1="0" y1="360" x2="1110" y2="360"/><line class="cls-2" x1="-10" y1="380" x2="1100" y2="380"/><line class="cls-2" x1="0" y1="400" x2="1110" y2="400"/></g><g><line class="cls-2" x1="-10" y1="30" x2="1100" y2="30"/><line class="cls-2" x1="0" y1="50" x2="1110" y2="50"/><line class="cls-2" x1="-10" y1="70" x2="1100" y2="70"/><line class="cls-2" x1="0" y1="90" x2="1110" y2="90"/><line class="cls-2" x1="-10" y1="110" x2="1100" y2="110"/><line class="cls-2" x1="0" y1="130" x2="1110" y2="130"/><line class="cls-2" x1="-10" y1="150" x2="1100" y2="150"/><line class="cls-2" x1="0" y1="170" x2="1110" y2="170"/><line class="cls-2" x1="-10" y1="190" x2="1100" y2="190"/><line class="cls-2" x1="0" y1="210" x2="1110" y2="210"/><line class="cls-2" x1="-10" y1="230" x2="1100" y2="230"/><line class="cls-2" x1="0" y1="250" x2="1110" y2="250"/><line class="cls-2" x1="-10" y1="270" x2="1100" y2="270"/><line class="cls-2" x1="0" y1="290" x2="1110" y2="290"/><line class="cls-2" x1="-10" y1="310" x2="1100" y2="310"/><line class="cls-2" x1="0" y1="330" x2="1110" y2="330"/><line class="cls-2" x1="-10" y1="350" x2="1100" y2="350"/><line class="cls-2" x1="0" y1="370" x2="1110" y2="370"/><line class="cls-2" x1="-10" y1="390" x2="1100" y2="390"/><line class="cls-2" x1="0" y1="410" x2="1110" y2="410"/></g></g></svg>