<?xml version="1.0" encoding="UTF-8" standalone="no"?>
<!-- Created with Inkscape (http://www.inkscape.org/) -->
<svg
   xmlns:dc="http://purl.org/dc/elements/1.1/"
   xmlns:cc="http://creativecommons.org/ns#"
   xmlns:rdf="http://www.w3.org/1999/02/22-rdf-syntax-ns#"
   xmlns:svg="http://www.w3.org/2000/svg"
   xmlns="http://www.w3.org/2000/svg"
   xmlns:sodipodi="http://sodipodi.sourceforge.net/DTD/sodipodi-0.dtd"
   xmlns:inkscape="http://www.inkscape.org/namespaces/inkscape"
   width="23.241426"
   height="24.000002"
   id="svg2"
   sodipodi:version="0.32"
   inkscape:version="0.46"
   version="1.0"
   sodipodi:docname="U+211C.svg"
   inkscape:output_extension="org.inkscape.output.svg.inkscape">
  <defs
     id="defs4">
    <inkscape:perspective
       sodipodi:type="inkscape:persp3d"
       inkscape:vp_x="0 : 526.18109 : 1"
       inkscape:vp_y="0 : 1000 : 0"
       inkscape:vp_z="744.09448 : 526.18109 : 1"
       inkscape:persp3d-origin="372.04724 : 350.78739 : 1"
       id="perspective10" />
  </defs>
  <sodipodi:namedview
     id="base"
     pagecolor="#ffffff"
     bordercolor="#666666"
     borderopacity="1.0"
     gridtolerance="10000"
     guidetolerance="10"
     objecttolerance="10"
     inkscape:pageopacity="0.0"
     inkscape:pageshadow="2"
     inkscape:zoom="13.571121"
     inkscape:cx="9.6160075"
     inkscape:cy="13.209519"
     inkscape:document-units="px"
     inkscape:current-layer="layer1"
     showgrid="false"
     inkscape:window-width="799"
     inkscape:window-height="669"
     inkscape:window-x="326"
     inkscape:window-y="208" />
  <metadata
     id="metadata7">
    <rdf:RDF>
      <cc:Work
         rdf:about="">
        <dc:format>image/svg+xml</dc:format>
        <dc:type
           rdf:resource="http://purl.org/dc/dcmitype/StillImage" />
      </cc:Work>
    </rdf:RDF>
  </metadata>
  <g
     inkscape:label="Layer 1"
     inkscape:groupmode="layer"
     id="layer1"
     transform="translate(-176.45289,-606.46649)">
    <path
       style="font-size:31.7969017px;font-style:normal;font-variant:normal;font-weight:normal;font-stretch:normal;text-align:start;line-height:100%;writing-mode:lr-tb;text-anchor:start;fill:#000000;fill-opacity:1;stroke:none;stroke-width:1px;stroke-linecap:butt;stroke-linejoin:miter;stroke-opacity:1;font-family:Cambria Math;-inkscape-font-specification:Cambria Math"
       d="M 185.41868,615.29144 C 185.41867,613.81132 185.35139,612.66241 185.21684,611.8447 C 185.08228,611.02703 184.88303,610.36718 184.6191,609.86516 C 184.35515,609.36318 183.99288,608.97245 183.53229,608.69296 C 183.07168,608.41352 182.49464,608.27378 181.80116,608.27376 C 181.29398,608.27378 180.82044,608.4161 180.38055,608.70072 C 179.94064,608.98538 179.60166,609.33213 179.3636,609.74095 C 179.12554,610.14982 179.00651,610.54573 179.00651,610.92868 C 179.00651,611.27027 179.04015,611.56784 179.10743,611.82142 C 179.1747,612.07502 179.26786,612.30791 179.38689,612.52008 C 179.50592,612.73228 179.65342,612.92635 179.82938,613.1023 C 180.00533,613.27827 180.28997,613.51116 180.6833,613.80096 C 181.14907,614.15289 181.5398,614.48411 181.8555,614.79461 C 182.17119,615.10514 182.43512,615.47 182.64732,615.88918 C 182.8595,616.30839 182.96559,616.76123 182.9656,617.24769 C 182.96559,618.24136 182.68613,619.13927 182.1272,619.94143 C 181.56827,620.7436 180.8075,621.30512 179.84491,621.62598 L 179.47229,620.6168 C 179.97946,620.3891 180.37019,620.15103 180.64449,619.90261 C 180.91877,619.65421 181.05592,619.35922 181.05592,619.01764 C 181.05592,618.69678 181.01193,618.42767 180.92395,618.2103 C 180.83597,617.99294 180.67812,617.76523 180.45041,617.52716 C 180.2227,617.28911 179.8656,616.98894 179.37913,616.62666 C 178.38547,615.88143 177.72304,615.24229 177.39182,614.70922 C 177.06061,614.17618 176.895,613.58879 176.895,612.94704 C 176.895,612.02586 177.14341,611.09431 177.64024,610.15239 C 178.13706,609.21051 178.8202,608.45751 179.68965,607.89338 C 180.55909,607.3293 181.52686,607.04724 182.59298,607.04722 C 183.36926,607.04724 184.11968,607.16369 184.84422,607.39655 C 185.56875,607.62946 186.21049,608.01761 186.76943,608.56099 C 187.32834,609.10442 187.70096,609.79014 187.88729,610.61816 C 190.21615,609.42787 192.18792,608.19616 193.80263,606.92302 C 194.16488,607.19215 194.50645,607.43021 194.82733,607.6372 C 195.51045,608.09265 196.01763,608.47821 196.34886,608.79388 C 196.68006,609.10959 196.95694,609.45375 197.1795,609.82635 C 197.40201,610.19899 197.56503,610.57419 197.66856,610.95197 C 197.77204,611.32978 197.8238,611.74639 197.82382,612.2018 C 197.8238,613.19547 197.51069,614.07009 196.8845,614.82566 C 196.25828,615.58127 195.36037,616.2437 194.19077,616.81297 C 194.81179,617.34086 195.27756,617.99812 195.5881,618.78475 C 195.89859,619.5714 196.05385,620.44085 196.05387,621.39309 L 196.05387,623.4425 C 196.05385,624.3016 196.11337,624.99509 196.23242,625.52296 C 196.35143,626.05084 196.49116,626.41311 196.65162,626.60977 C 196.81203,626.80643 196.97505,626.90476 197.14068,626.90476 C 197.33732,626.90476 197.70476,626.67705 198.24301,626.22162 C 198.37755,626.10777 198.49658,626.01462 198.60011,625.94216 L 199.25219,626.90476 L 195.38626,629.94782 C 194.5789,629.4924 193.95269,628.78339 193.50764,627.82078 C 193.06255,626.85819 192.84001,625.77655 192.84003,624.57589 L 192.84003,621.36204 C 192.84001,620.90662 192.77532,620.44861 192.64595,619.988 C 192.51655,619.52741 192.31989,619.13927 192.05597,618.82357 C 191.79202,618.50788 191.48409,618.35004 191.13218,618.35003 C 190.82165,618.35004 189.93151,618.67608 188.46174,619.32815 C 188.45138,620.60128 188.40998,621.56129 188.33753,622.2082 C 188.26507,622.85511 188.16156,623.41145 188.02702,623.87722 C 187.89245,624.343 187.7139,624.76479 187.49138,625.14258 C 187.26883,625.52038 186.99713,625.89041 186.67627,626.25268 C 186.35539,626.61495 186.04488,626.91253 185.74472,627.14541 C 185.44455,627.3783 184.96325,627.71211 184.30082,628.14683 C 183.91784,628.39524 183.52193,628.66436 183.11309,628.95417 C 182.70424,629.24399 182.27728,629.5959 181.83221,630.00993 L 179.82938,627.77421 L 178.36995,628.86102 L 177.70234,627.88289 L 181.95642,624.63799 L 183.9282,626.98239 C 184.50782,626.59942 184.90114,626.17246 185.10816,625.70151 C 185.31516,625.23056 185.41867,624.61729 185.41868,623.8617 L 185.41868,615.29144 z M 192.46741,610.01266 C 192.01197,610.04373 191.5022,610.16793 190.93811,610.38528 C 190.37399,610.60266 189.46573,611.08396 188.21333,611.82918 C 188.35822,612.80215 188.44103,614.86708 188.46174,618.02399 C 189.828,617.50647 190.9381,617.05105 191.79203,616.65771 C 192.64594,616.2644 193.29543,615.89696 193.74052,615.55538 C 194.18558,615.21382 194.50386,614.86708 194.69536,614.51515 C 194.88683,614.16324 194.98257,613.74405 194.98259,613.25756 C 194.98257,612.48128 194.75227,611.78521 194.29169,611.16933 C 193.83107,610.55349 193.22298,610.16793 192.46741,610.01266 L 192.46741,610.01266 z"
       id="text2867" />
  </g>
</svg>
